<svg width="1233" height="197" viewBox="0 0 1233 197" fill="none" xmlns="http://www.w3.org/2000/svg">
<g filter="url(#filter0_d_6_253)">
<path d="M923.401 166.454C924.769 166.454 925.951 166.712 926.947 167.228C927.955 167.732 928.723 168.458 929.251 169.406C929.791 170.354 930.061 171.47 930.061 172.754C930.061 174.038 929.791 175.154 929.251 176.102C928.723 177.038 927.955 177.758 926.947 178.262C925.951 178.754 924.769 179 923.401 179H919.495V166.454H923.401ZM923.401 177.65C925.021 177.65 926.257 177.224 927.109 176.372C927.961 175.508 928.387 174.302 928.387 172.754C928.387 171.194 927.955 169.976 927.091 169.1C926.239 168.224 925.009 167.786 923.401 167.786H921.133V177.65H923.401ZM941.222 173.69C941.222 174.002 941.204 174.332 941.168 174.68H933.284C933.344 175.652 933.674 176.414 934.274 176.966C934.886 177.506 935.624 177.776 936.488 177.776C937.196 177.776 937.784 177.614 938.252 177.29C938.732 176.954 939.068 176.51 939.26 175.958H941.024C940.76 176.906 940.232 177.68 939.44 178.28C938.648 178.868 937.664 179.162 936.488 179.162C935.552 179.162 934.712 178.952 933.968 178.532C933.236 178.112 932.66 177.518 932.24 176.75C931.82 175.97 931.61 175.07 931.61 174.05C931.61 173.03 931.814 172.136 932.222 171.368C932.63 170.6 933.2 170.012 933.932 169.604C934.676 169.184 935.528 168.974 936.488 168.974C937.424 168.974 938.252 169.178 938.972 169.586C939.692 169.994 940.244 170.558 940.628 171.278C941.024 171.986 941.222 172.79 941.222 173.69ZM939.53 173.348C939.53 172.724 939.392 172.19 939.116 171.746C938.84 171.29 938.462 170.948 937.982 170.72C937.514 170.48 936.992 170.36 936.416 170.36C935.588 170.36 934.88 170.624 934.292 171.152C933.716 171.68 933.386 172.412 933.302 173.348H939.53ZM946.876 179.162C946.12 179.162 945.442 179.036 944.842 178.784C944.242 178.52 943.768 178.16 943.42 177.704C943.072 177.236 942.88 176.702 942.844 176.102H944.536C944.584 176.594 944.812 176.996 945.22 177.308C945.64 177.62 946.186 177.776 946.858 177.776C947.482 177.776 947.974 177.638 948.334 177.362C948.694 177.086 948.874 176.738 948.874 176.318C948.874 175.886 948.682 175.568 948.298 175.364C947.914 175.148 947.32 174.938 946.516 174.734C945.784 174.542 945.184 174.35 944.716 174.158C944.26 173.954 943.864 173.66 943.528 173.276C943.204 172.88 943.042 172.364 943.042 171.728C943.042 171.224 943.192 170.762 943.492 170.342C943.792 169.922 944.218 169.592 944.77 169.352C945.322 169.1 945.952 168.974 946.66 168.974C947.752 168.974 948.634 169.25 949.306 169.802C949.978 170.354 950.338 171.11 950.386 172.07H948.748C948.712 171.554 948.502 171.14 948.118 170.828C947.746 170.516 947.242 170.36 946.606 170.36C946.018 170.36 945.55 170.486 945.202 170.738C944.854 170.99 944.68 171.32 944.68 171.728C944.68 172.052 944.782 172.322 944.986 172.538C945.202 172.742 945.466 172.91 945.778 173.042C946.102 173.162 946.546 173.3 947.11 173.456C947.818 173.648 948.394 173.84 948.838 174.032C949.282 174.212 949.66 174.488 949.972 174.86C950.296 175.232 950.464 175.718 950.476 176.318C950.476 176.858 950.326 177.344 950.026 177.776C949.726 178.208 949.3 178.55 948.748 178.802C948.208 179.042 947.584 179.162 946.876 179.162ZM953.634 167.534C953.322 167.534 953.058 167.426 952.842 167.21C952.626 166.994 952.518 166.73 952.518 166.418C952.518 166.106 952.626 165.842 952.842 165.626C953.058 165.41 953.322 165.302 953.634 165.302C953.934 165.302 954.186 165.41 954.39 165.626C954.606 165.842 954.714 166.106 954.714 166.418C954.714 166.73 954.606 166.994 954.39 167.21C954.186 167.426 953.934 167.534 953.634 167.534ZM954.426 169.136V179H952.788V169.136H954.426ZM961.286 168.974C962.138 168.974 962.882 169.16 963.518 169.532C964.166 169.904 964.646 170.372 964.958 170.936V169.136H966.614V179.216C966.614 180.116 966.422 180.914 966.038 181.61C965.654 182.318 965.102 182.87 964.382 183.266C963.674 183.662 962.846 183.86 961.898 183.86C960.602 183.86 959.522 183.554 958.658 182.942C957.794 182.33 957.284 181.496 957.128 180.44H958.748C958.928 181.04 959.3 181.52 959.864 181.88C960.428 182.252 961.106 182.438 961.898 182.438C962.798 182.438 963.53 182.156 964.094 181.592C964.67 181.028 964.958 180.236 964.958 179.216V177.146C964.634 177.722 964.154 178.202 963.518 178.586C962.882 178.97 962.138 179.162 961.286 179.162C960.41 179.162 959.612 178.946 958.892 178.514C958.184 178.082 957.626 177.476 957.218 176.696C956.81 175.916 956.606 175.028 956.606 174.032C956.606 173.024 956.81 172.142 957.218 171.386C957.626 170.618 958.184 170.024 958.892 169.604C959.612 169.184 960.41 168.974 961.286 168.974ZM964.958 174.05C964.958 173.306 964.808 172.658 964.508 172.106C964.208 171.554 963.8 171.134 963.284 170.846C962.78 170.546 962.222 170.396 961.61 170.396C960.998 170.396 960.44 170.54 959.936 170.828C959.432 171.116 959.03 171.536 958.73 172.088C958.43 172.64 958.28 173.288 958.28 174.032C958.28 174.788 958.43 175.448 958.73 176.012C959.03 176.564 959.432 176.99 959.936 177.29C960.44 177.578 960.998 177.722 961.61 177.722C962.222 177.722 962.78 177.578 963.284 177.29C963.8 176.99 964.208 176.564 964.508 176.012C964.808 175.448 964.958 174.794 964.958 174.05ZM974.188 168.956C975.388 168.956 976.36 169.322 977.104 170.054C977.848 170.774 978.22 171.818 978.22 173.186V179H976.6V173.42C976.6 172.436 976.354 171.686 975.862 171.17C975.37 170.642 974.698 170.378 973.846 170.378C972.982 170.378 972.292 170.648 971.776 171.188C971.272 171.728 971.02 172.514 971.02 173.546V179H969.382V169.136H971.02V170.54C971.344 170.036 971.782 169.646 972.334 169.37C972.898 169.094 973.516 168.956 974.188 168.956ZM989.896 173.69C989.896 174.002 989.878 174.332 989.842 174.68H981.958C982.018 175.652 982.348 176.414 982.948 176.966C983.56 177.506 984.298 177.776 985.162 177.776C985.87 177.776 986.458 177.614 986.926 177.29C987.406 176.954 987.742 176.51 987.934 175.958H989.698C989.434 176.906 988.906 177.68 988.114 178.28C987.322 178.868 986.338 179.162 985.162 179.162C984.226 179.162 983.386 178.952 982.642 178.532C981.91 178.112 981.334 177.518 980.914 176.75C980.494 175.97 980.284 175.07 980.284 174.05C980.284 173.03 980.488 172.136 980.896 171.368C981.304 170.6 981.874 170.012 982.606 169.604C983.35 169.184 984.202 168.974 985.162 168.974C986.098 168.974 986.926 169.178 987.646 169.586C988.366 169.994 988.918 170.558 989.302 171.278C989.698 171.986 989.896 172.79 989.896 173.69ZM988.204 173.348C988.204 172.724 988.066 172.19 987.79 171.746C987.514 171.29 987.136 170.948 986.656 170.72C986.188 170.48 985.666 170.36 985.09 170.36C984.262 170.36 983.554 170.624 982.966 171.152C982.39 171.68 982.06 172.412 981.976 173.348H988.204ZM991.446 174.032C991.446 173.024 991.65 172.142 992.058 171.386C992.466 170.618 993.024 170.024 993.732 169.604C994.452 169.184 995.256 168.974 996.144 168.974C996.912 168.974 997.626 169.154 998.286 169.514C998.946 169.862 999.45 170.324 999.798 170.9V165.68H1001.45V179H999.798V177.146C999.474 177.734 998.994 178.22 998.358 178.604C997.722 178.976 996.978 179.162 996.126 179.162C995.25 179.162 994.452 178.946 993.732 178.514C993.024 178.082 992.466 177.476 992.058 176.696C991.65 175.916 991.446 175.028 991.446 174.032ZM999.798 174.05C999.798 173.306 999.648 172.658 999.348 172.106C999.048 171.554 998.64 171.134 998.124 170.846C997.62 170.546 997.062 170.396 996.45 170.396C995.838 170.396 995.28 170.54 994.776 170.828C994.272 171.116 993.87 171.536 993.57 172.088C993.27 172.64 993.12 173.288 993.12 174.032C993.12 174.788 993.27 175.448 993.57 176.012C993.87 176.564 994.272 176.99 994.776 177.29C995.28 177.578 995.838 177.722 996.45 177.722C997.062 177.722 997.62 177.578 998.124 177.29C998.64 176.99 999.048 176.564 999.348 176.012C999.648 175.448 999.798 174.794 999.798 174.05ZM1008.41 174.032C1008.41 173.024 1008.61 172.142 1009.02 171.386C1009.43 170.618 1009.99 170.024 1010.69 169.604C1011.41 169.184 1012.21 168.974 1013.09 168.974C1013.95 168.974 1014.7 169.16 1015.34 169.532C1015.97 169.904 1016.45 170.372 1016.76 170.936V169.136H1018.42V179H1016.76V177.164C1016.44 177.74 1015.95 178.22 1015.3 178.604C1014.67 178.976 1013.92 179.162 1013.07 179.162C1012.19 179.162 1011.4 178.946 1010.69 178.514C1009.99 178.082 1009.43 177.476 1009.02 176.696C1008.61 175.916 1008.41 175.028 1008.41 174.032ZM1016.76 174.05C1016.76 173.306 1016.61 172.658 1016.31 172.106C1016.01 171.554 1015.6 171.134 1015.09 170.846C1014.58 170.546 1014.02 170.396 1013.41 170.396C1012.8 170.396 1012.24 170.54 1011.74 170.828C1011.23 171.116 1010.83 171.536 1010.53 172.088C1010.23 172.64 1010.08 173.288 1010.08 174.032C1010.08 174.788 1010.23 175.448 1010.53 176.012C1010.83 176.564 1011.23 176.99 1011.74 177.29C1012.24 177.578 1012.8 177.722 1013.41 177.722C1014.02 177.722 1014.58 177.578 1015.09 177.29C1015.6 176.99 1016.01 176.564 1016.31 176.012C1016.61 175.448 1016.76 174.794 1016.76 174.05ZM1025.99 168.956C1027.19 168.956 1028.16 169.322 1028.91 170.054C1029.65 170.774 1030.02 171.818 1030.02 173.186V179H1028.4V173.42C1028.4 172.436 1028.16 171.686 1027.66 171.17C1027.17 170.642 1026.5 170.378 1025.65 170.378C1024.78 170.378 1024.09 170.648 1023.58 171.188C1023.07 171.728 1022.82 172.514 1022.82 173.546V179H1021.18V169.136H1022.82V170.54C1023.15 170.036 1023.58 169.646 1024.14 169.37C1024.7 169.094 1025.32 168.956 1025.99 168.956ZM1032.09 174.032C1032.09 173.024 1032.29 172.142 1032.7 171.386C1033.11 170.618 1033.66 170.024 1034.37 169.604C1035.09 169.184 1035.9 168.974 1036.78 168.974C1037.55 168.974 1038.27 169.154 1038.93 169.514C1039.59 169.862 1040.09 170.324 1040.44 170.9V165.68H1042.09V179H1040.44V177.146C1040.11 177.734 1039.63 178.22 1039 178.604C1038.36 178.976 1037.62 179.162 1036.77 179.162C1035.89 179.162 1035.09 178.946 1034.37 178.514C1033.66 178.082 1033.11 177.476 1032.7 176.696C1032.29 175.916 1032.09 175.028 1032.09 174.032ZM1040.44 174.05C1040.44 173.306 1040.29 172.658 1039.99 172.106C1039.69 171.554 1039.28 171.134 1038.76 170.846C1038.26 170.546 1037.7 170.396 1037.09 170.396C1036.48 170.396 1035.92 170.54 1035.42 170.828C1034.91 171.116 1034.51 171.536 1034.21 172.088C1033.91 172.64 1033.76 173.288 1033.76 174.032C1033.76 174.788 1033.91 175.448 1034.21 176.012C1034.51 176.564 1034.91 176.99 1035.42 177.29C1035.92 177.578 1036.48 177.722 1037.09 177.722C1037.7 177.722 1038.26 177.578 1038.76 177.29C1039.28 176.99 1039.69 176.564 1039.99 176.012C1040.29 175.448 1040.44 174.794 1040.44 174.05ZM1051.3 170.972C1051.64 170.384 1052.13 169.904 1052.78 169.532C1053.42 169.16 1054.16 168.974 1054.99 168.974C1055.88 168.974 1056.68 169.184 1057.38 169.604C1058.09 170.024 1058.65 170.618 1059.06 171.386C1059.47 172.142 1059.67 173.024 1059.67 174.032C1059.67 175.028 1059.47 175.916 1059.06 176.696C1058.65 177.476 1058.09 178.082 1057.37 178.514C1056.66 178.946 1055.87 179.162 1054.99 179.162C1054.14 179.162 1053.39 178.976 1052.74 178.604C1052.1 178.232 1051.62 177.758 1051.3 177.182V179H1049.66V165.68H1051.3V170.972ZM1058 174.032C1058 173.288 1057.85 172.64 1057.55 172.088C1057.25 171.536 1056.84 171.116 1056.32 170.828C1055.82 170.54 1055.26 170.396 1054.65 170.396C1054.05 170.396 1053.49 170.546 1052.97 170.846C1052.47 171.134 1052.06 171.56 1051.75 172.124C1051.45 172.676 1051.3 173.318 1051.3 174.05C1051.3 174.794 1051.45 175.448 1051.75 176.012C1052.06 176.564 1052.47 176.99 1052.97 177.29C1053.49 177.578 1054.05 177.722 1054.65 177.722C1055.26 177.722 1055.82 177.578 1056.32 177.29C1056.84 176.99 1057.25 176.564 1057.55 176.012C1057.85 175.448 1058 174.788 1058 174.032ZM1070.57 169.136V179H1068.94V177.542C1068.62 178.046 1068.19 178.442 1067.62 178.73C1067.07 179.006 1066.46 179.144 1065.79 179.144C1065.02 179.144 1064.33 178.988 1063.72 178.676C1063.1 178.352 1062.62 177.872 1062.26 177.236C1061.91 176.6 1061.74 175.826 1061.74 174.914V169.136H1063.36V174.698C1063.36 175.67 1063.6 176.42 1064.09 176.948C1064.59 177.464 1065.26 177.722 1066.11 177.722C1066.99 177.722 1067.68 177.452 1068.18 176.912C1068.68 176.372 1068.94 175.586 1068.94 174.554V169.136H1070.57ZM1074.19 167.534C1073.87 167.534 1073.61 167.426 1073.39 167.21C1073.18 166.994 1073.07 166.73 1073.07 166.418C1073.07 166.106 1073.18 165.842 1073.39 165.626C1073.61 165.41 1073.87 165.302 1074.19 165.302C1074.49 165.302 1074.74 165.41 1074.94 165.626C1075.16 165.842 1075.27 166.106 1075.27 166.418C1075.27 166.73 1075.16 166.994 1074.94 167.21C1074.74 167.426 1074.49 167.534 1074.19 167.534ZM1074.98 169.136V179H1073.34V169.136H1074.98ZM1079.41 165.68V179H1077.77V165.68H1079.41ZM1084.2 170.486V176.3C1084.2 176.78 1084.3 177.122 1084.5 177.326C1084.71 177.518 1085.06 177.614 1085.56 177.614H1086.77V179H1085.29C1084.38 179 1083.7 178.79 1083.24 178.37C1082.79 177.95 1082.56 177.26 1082.56 176.3V170.486H1081.28V169.136H1082.56V166.652H1084.2V169.136H1086.77V170.486H1084.2ZM1095.19 170.972C1095.53 170.384 1096.02 169.904 1096.67 169.532C1097.32 169.16 1098.05 168.974 1098.88 168.974C1099.77 168.974 1100.57 169.184 1101.28 169.604C1101.98 170.024 1102.54 170.618 1102.95 171.386C1103.36 172.142 1103.56 173.024 1103.56 174.032C1103.56 175.028 1103.36 175.916 1102.95 176.696C1102.54 177.476 1101.98 178.082 1101.26 178.514C1100.55 178.946 1099.76 179.162 1098.88 179.162C1098.03 179.162 1097.28 178.976 1096.63 178.604C1096 178.232 1095.52 177.758 1095.19 177.182V179H1093.55V165.68H1095.19V170.972ZM1101.89 174.032C1101.89 173.288 1101.74 172.64 1101.44 172.088C1101.14 171.536 1100.73 171.116 1100.21 170.828C1099.71 170.54 1099.15 170.396 1098.54 170.396C1097.94 170.396 1097.38 170.546 1096.87 170.846C1096.36 171.134 1095.95 171.56 1095.64 172.124C1095.34 172.676 1095.19 173.318 1095.19 174.05C1095.19 174.794 1095.34 175.448 1095.64 176.012C1095.95 176.564 1096.36 176.99 1096.87 177.29C1097.38 177.578 1097.94 177.722 1098.54 177.722C1099.15 177.722 1099.71 177.578 1100.21 177.29C1100.73 176.99 1101.14 176.564 1101.44 176.012C1101.74 175.448 1101.89 174.788 1101.89 174.032ZM1114.21 169.136L1108.27 183.644H1106.58L1108.53 178.892L1104.55 169.136H1106.37L1109.46 177.128L1112.52 169.136H1114.21ZM1129.16 169.136L1123.22 183.644H1121.52L1123.47 178.892L1119.49 169.136H1121.31L1124.4 177.128L1127.46 169.136H1129.16ZM1130.19 174.032C1130.19 173.024 1130.39 172.142 1130.8 171.386C1131.21 170.618 1131.77 170.024 1132.48 169.604C1133.2 169.184 1133.99 168.974 1134.87 168.974C1135.73 168.974 1136.48 169.16 1137.12 169.532C1137.76 169.904 1138.23 170.372 1138.54 170.936V169.136H1140.2V179H1138.54V177.164C1138.22 177.74 1137.73 178.22 1137.08 178.604C1136.45 178.976 1135.7 179.162 1134.85 179.162C1133.98 179.162 1133.18 178.946 1132.48 178.514C1131.77 178.082 1131.21 177.476 1130.8 176.696C1130.39 175.916 1130.19 175.028 1130.19 174.032ZM1138.54 174.05C1138.54 173.306 1138.39 172.658 1138.09 172.106C1137.79 171.554 1137.38 171.134 1136.87 170.846C1136.36 170.546 1135.81 170.396 1135.19 170.396C1134.58 170.396 1134.02 170.54 1133.52 170.828C1133.02 171.116 1132.61 171.536 1132.31 172.088C1132.01 172.64 1131.86 173.288 1131.86 174.032C1131.86 174.788 1132.01 175.448 1132.31 176.012C1132.61 176.564 1133.02 176.99 1133.52 177.29C1134.02 177.578 1134.58 177.722 1135.19 177.722C1135.81 177.722 1136.36 177.578 1136.87 177.29C1137.38 176.99 1137.79 176.564 1138.09 176.012C1138.39 175.448 1138.54 174.794 1138.54 174.05ZM1147.77 168.956C1148.97 168.956 1149.94 169.322 1150.69 170.054C1151.43 170.774 1151.8 171.818 1151.8 173.186V179H1150.18V173.42C1150.18 172.436 1149.94 171.686 1149.45 171.17C1148.95 170.642 1148.28 170.378 1147.43 170.378C1146.57 170.378 1145.88 170.648 1145.36 171.188C1144.86 171.728 1144.6 172.514 1144.6 173.546V179H1142.97V169.136H1144.6V170.54C1144.93 170.036 1145.37 169.646 1145.92 169.37C1146.48 169.094 1147.1 168.956 1147.77 168.956ZM1158.55 168.974C1159.4 168.974 1160.14 169.16 1160.78 169.532C1161.43 169.904 1161.91 170.372 1162.22 170.936V169.136H1163.88V179.216C1163.88 180.116 1163.68 180.914 1163.3 181.61C1162.92 182.318 1162.36 182.87 1161.64 183.266C1160.94 183.662 1160.11 183.86 1159.16 183.86C1157.86 183.86 1156.78 183.554 1155.92 182.942C1155.06 182.33 1154.55 181.496 1154.39 180.44H1156.01C1156.19 181.04 1156.56 181.52 1157.13 181.88C1157.69 182.252 1158.37 182.438 1159.16 182.438C1160.06 182.438 1160.79 182.156 1161.36 181.592C1161.93 181.028 1162.22 180.236 1162.22 179.216V177.146C1161.9 177.722 1161.42 178.202 1160.78 178.586C1160.14 178.97 1159.4 179.162 1158.55 179.162C1157.67 179.162 1156.87 178.946 1156.15 178.514C1155.45 178.082 1154.89 177.476 1154.48 176.696C1154.07 175.916 1153.87 175.028 1153.87 174.032C1153.87 173.024 1154.07 172.142 1154.48 171.386C1154.89 170.618 1155.45 170.024 1156.15 169.604C1156.87 169.184 1157.67 168.974 1158.55 168.974ZM1162.22 174.05C1162.22 173.306 1162.07 172.658 1161.77 172.106C1161.47 171.554 1161.06 171.134 1160.55 170.846C1160.04 170.546 1159.48 170.396 1158.87 170.396C1158.26 170.396 1157.7 170.54 1157.2 170.828C1156.69 171.116 1156.29 171.536 1155.99 172.088C1155.69 172.64 1155.54 173.288 1155.54 174.032C1155.54 174.788 1155.69 175.448 1155.99 176.012C1156.29 176.564 1156.69 176.99 1157.2 177.29C1157.7 177.578 1158.26 177.722 1158.87 177.722C1159.48 177.722 1160.04 177.578 1160.55 177.29C1161.06 176.99 1161.47 176.564 1161.77 176.012C1162.07 175.448 1162.22 174.794 1162.22 174.05ZM1167.53 167.534C1167.21 167.534 1166.95 167.426 1166.73 167.21C1166.53 166.994 1166.43 166.73 1166.43 166.418C1166.43 166.106 1166.53 165.842 1166.73 165.626C1166.95 165.41 1167.21 165.302 1167.53 165.302C1167.84 165.302 1168.1 165.41 1168.3 165.626C1168.52 165.842 1168.62 166.106 1168.62 166.418C1168.62 166.73 1168.52 166.994 1168.3 167.21C1168.1 167.426 1167.84 167.534 1167.53 167.534ZM1168.34 181.142C1168.34 182.018 1168.11 182.66 1167.67 183.068C1167.23 183.476 1166.58 183.68 1165.73 183.68H1164.77V182.294H1165.46C1165.91 182.294 1166.23 182.204 1166.41 182.024C1166.6 181.844 1166.7 181.538 1166.7 181.106V169.136H1168.34V181.142ZM1171.95 167.534C1171.64 167.534 1171.38 167.426 1171.16 167.21C1170.95 166.994 1170.84 166.73 1170.84 166.418C1170.84 166.106 1170.95 165.842 1171.16 165.626C1171.38 165.41 1171.64 165.302 1171.95 165.302C1172.25 165.302 1172.51 165.41 1172.71 165.626C1172.93 165.842 1173.03 166.106 1173.03 166.418C1173.03 166.73 1172.93 166.994 1172.71 167.21C1172.51 167.426 1172.25 167.534 1171.95 167.534ZM1172.75 169.136V179H1171.11V169.136H1172.75ZM1180.34 168.956C1181.54 168.956 1182.52 169.322 1183.26 170.054C1184 170.774 1184.38 171.818 1184.38 173.186V179H1182.76V173.42C1182.76 172.436 1182.51 171.686 1182.02 171.17C1181.53 170.642 1180.85 170.378 1180 170.378C1179.14 170.378 1178.45 170.648 1177.93 171.188C1177.43 171.728 1177.18 172.514 1177.18 173.546V179H1175.54V169.136H1177.18V170.54C1177.5 170.036 1177.94 169.646 1178.49 169.37C1179.05 169.094 1179.67 168.956 1180.34 168.956ZM1191.95 168.956C1192.69 168.956 1193.36 169.118 1193.96 169.442C1194.56 169.754 1195.03 170.228 1195.37 170.864C1195.72 171.5 1195.89 172.274 1195.89 173.186V179H1194.27V173.42C1194.27 172.436 1194.02 171.686 1193.53 171.17C1193.04 170.642 1192.37 170.378 1191.52 170.378C1190.65 170.378 1189.96 170.648 1189.45 171.188C1188.94 171.728 1188.69 172.514 1188.69 173.546V179H1187.05V165.68H1188.69V170.54C1189.01 170.036 1189.46 169.646 1190.02 169.37C1190.6 169.094 1191.24 168.956 1191.95 168.956ZM1197.95 174.05C1197.95 173.03 1198.16 172.142 1198.57 171.386C1198.97 170.618 1199.54 170.024 1200.26 169.604C1200.99 169.184 1201.82 168.974 1202.76 168.974C1203.97 168.974 1204.97 169.268 1205.75 169.856C1206.54 170.444 1207.06 171.26 1207.31 172.304H1205.55C1205.38 171.704 1205.05 171.23 1204.56 170.882C1204.08 170.534 1203.48 170.36 1202.76 170.36C1201.82 170.36 1201.07 170.684 1200.49 171.332C1199.92 171.968 1199.63 172.874 1199.63 174.05C1199.63 175.238 1199.92 176.156 1200.49 176.804C1201.07 177.452 1201.82 177.776 1202.76 177.776C1203.48 177.776 1204.08 177.608 1204.56 177.272C1205.04 176.936 1205.37 176.456 1205.55 175.832H1207.31C1207.05 176.84 1206.52 177.65 1205.73 178.262C1204.94 178.862 1203.95 179.162 1202.76 179.162C1201.82 179.162 1200.99 178.952 1200.26 178.532C1199.54 178.112 1198.97 177.518 1198.57 176.75C1198.16 175.982 1197.95 175.082 1197.95 174.05ZM1218.25 169.136V179H1216.61V177.542C1216.3 178.046 1215.86 178.442 1215.3 178.73C1214.74 179.006 1214.13 179.144 1213.46 179.144C1212.69 179.144 1212 178.988 1211.39 178.676C1210.78 178.352 1210.29 177.872 1209.93 177.236C1209.58 176.6 1209.41 175.826 1209.41 174.914V169.136H1211.03V174.698C1211.03 175.67 1211.28 176.42 1211.77 176.948C1212.26 177.464 1212.93 177.722 1213.78 177.722C1214.66 177.722 1215.35 177.452 1215.85 176.912C1216.36 176.372 1216.61 175.586 1216.61 174.554V169.136H1218.25ZM1226.52 179L1222.65 174.644V179H1221.01V165.68H1222.65V173.51L1226.45 169.136H1228.73L1224.09 174.05L1228.75 179H1226.52Z" fill="#666666"/>
<path d="M381.332 184V171.4H385.472C386.456 171.4 387.266 171.562 387.902 171.886C388.538 172.21 389.006 172.648 389.306 173.2C389.618 173.752 389.774 174.376 389.774 175.072C389.774 175.756 389.624 176.374 389.324 176.926C389.024 177.478 388.556 177.922 387.92 178.258C387.284 178.582 386.468 178.744 385.472 178.744H382.844V184H381.332ZM382.844 177.466H385.436C386.444 177.466 387.158 177.256 387.578 176.836C388.01 176.404 388.226 175.816 388.226 175.072C388.226 174.316 388.01 173.728 387.578 173.308C387.158 172.876 386.444 172.66 385.436 172.66H382.844V177.466ZM391.666 184V175.072H393.034L393.16 176.782C393.436 176.194 393.856 175.726 394.42 175.378C394.984 175.03 395.68 174.856 396.508 174.856V176.44H396.094C395.566 176.44 395.08 176.536 394.636 176.728C394.192 176.908 393.838 177.22 393.574 177.664C393.31 178.108 393.178 178.72 393.178 179.5V184H391.666ZM401.939 184.216C401.099 184.216 400.343 184.024 399.671 183.64C398.999 183.256 398.465 182.716 398.069 182.02C397.685 181.312 397.493 180.484 397.493 179.536C397.493 178.588 397.691 177.766 398.087 177.07C398.483 176.362 399.017 175.816 399.689 175.432C400.373 175.048 401.135 174.856 401.975 174.856C402.815 174.856 403.571 175.048 404.243 175.432C404.915 175.816 405.443 176.362 405.827 177.07C406.223 177.766 406.421 178.588 406.421 179.536C406.421 180.484 406.223 181.312 405.827 182.02C405.431 182.716 404.891 183.256 404.207 183.64C403.535 184.024 402.779 184.216 401.939 184.216ZM401.939 182.92C402.455 182.92 402.935 182.794 403.379 182.542C403.823 182.29 404.183 181.912 404.459 181.408C404.735 180.904 404.873 180.28 404.873 179.536C404.873 178.792 404.735 178.168 404.459 177.664C404.195 177.16 403.841 176.782 403.397 176.53C402.953 176.278 402.479 176.152 401.975 176.152C401.459 176.152 400.979 176.278 400.535 176.53C400.091 176.782 399.731 177.16 399.455 177.664C399.179 178.168 399.041 178.792 399.041 179.536C399.041 180.28 399.179 180.904 399.455 181.408C399.731 181.912 400.085 182.29 400.517 182.542C400.961 182.794 401.435 182.92 401.939 182.92ZM409.513 173.092C409.225 173.092 408.979 172.996 408.775 172.804C408.571 172.6 408.469 172.348 408.469 172.048C408.469 171.76 408.571 171.52 408.775 171.328C408.979 171.136 409.225 171.04 409.513 171.04C409.801 171.04 410.041 171.136 410.233 171.328C410.437 171.52 410.539 171.76 410.539 172.048C410.539 172.348 410.437 172.6 410.233 172.804C410.041 172.996 409.801 173.092 409.513 173.092ZM406.777 187.96V186.664H407.479C407.923 186.664 408.241 186.568 408.433 186.376C408.637 186.196 408.739 185.884 408.739 185.44V175.072H410.251V185.476C410.251 186.34 410.035 186.97 409.603 187.366C409.171 187.762 408.541 187.96 407.713 187.96H406.777ZM416.897 184.216C416.045 184.216 415.289 184.024 414.629 183.64C413.969 183.244 413.447 182.698 413.063 182.002C412.691 181.306 412.505 180.484 412.505 179.536C412.505 178.6 412.691 177.784 413.063 177.088C413.435 176.38 413.951 175.834 414.611 175.45C415.283 175.054 416.057 174.856 416.933 174.856C417.797 174.856 418.541 175.054 419.165 175.45C419.801 175.834 420.287 176.344 420.623 176.98C420.959 177.616 421.127 178.3 421.127 179.032C421.127 179.164 421.121 179.296 421.109 179.428C421.109 179.56 421.109 179.71 421.109 179.878H413.999C414.035 180.562 414.191 181.132 414.467 181.588C414.755 182.032 415.109 182.368 415.529 182.596C415.961 182.824 416.417 182.938 416.897 182.938C417.521 182.938 418.043 182.794 418.463 182.506C418.883 182.218 419.189 181.828 419.381 181.336H420.875C420.635 182.164 420.173 182.854 419.489 183.406C418.817 183.946 417.953 184.216 416.897 184.216ZM416.897 176.134C416.177 176.134 415.535 176.356 414.971 176.8C414.419 177.232 414.101 177.868 414.017 178.708H419.633C419.597 177.904 419.321 177.274 418.805 176.818C418.289 176.362 417.653 176.134 416.897 176.134ZM427.235 184.216C426.383 184.216 425.615 184.024 424.931 183.64C424.259 183.244 423.725 182.698 423.329 182.002C422.945 181.294 422.753 180.472 422.753 179.536C422.753 178.6 422.945 177.784 423.329 177.088C423.725 176.38 424.259 175.834 424.931 175.45C425.615 175.054 426.383 174.856 427.235 174.856C428.291 174.856 429.179 175.132 429.899 175.684C430.631 176.236 431.093 176.974 431.285 177.898H429.737C429.617 177.346 429.323 176.92 428.855 176.62C428.387 176.308 427.841 176.152 427.217 176.152C426.713 176.152 426.239 176.278 425.795 176.53C425.351 176.782 424.991 177.16 424.715 177.664C424.439 178.168 424.301 178.792 424.301 179.536C424.301 180.28 424.439 180.904 424.715 181.408C424.991 181.912 425.351 182.296 425.795 182.56C426.239 182.812 426.713 182.938 427.217 182.938C427.841 182.938 428.387 182.788 428.855 182.488C429.323 182.176 429.617 181.738 429.737 181.174H431.285C431.105 182.074 430.649 182.806 429.917 183.37C429.185 183.934 428.291 184.216 427.235 184.216ZM436.678 184C435.862 184 435.22 183.802 434.752 183.406C434.284 183.01 434.05 182.296 434.05 181.264V176.35H432.502V175.072H434.05L434.248 172.93H435.562V175.072H438.19V176.35H435.562V181.264C435.562 181.828 435.676 182.212 435.904 182.416C436.132 182.608 436.534 182.704 437.11 182.704H438.046V184H436.678ZM443.531 184.216C442.463 184.216 441.575 183.946 440.867 183.406C440.159 182.866 439.745 182.134 439.625 181.21H441.173C441.269 181.678 441.515 182.086 441.911 182.434C442.319 182.77 442.865 182.938 443.549 182.938C444.185 182.938 444.653 182.806 444.953 182.542C445.253 182.266 445.403 181.942 445.403 181.57C445.403 181.03 445.205 180.67 444.809 180.49C444.425 180.31 443.879 180.148 443.171 180.004C442.691 179.908 442.211 179.77 441.731 179.59C441.251 179.41 440.849 179.158 440.525 178.834C440.201 178.498 440.039 178.06 440.039 177.52C440.039 176.74 440.327 176.104 440.903 175.612C441.491 175.108 442.283 174.856 443.279 174.856C444.227 174.856 445.001 175.096 445.601 175.576C446.213 176.044 446.567 176.716 446.663 177.592H445.169C445.109 177.136 444.911 176.782 444.575 176.53C444.251 176.266 443.813 176.134 443.261 176.134C442.721 176.134 442.301 176.248 442.001 176.476C441.713 176.704 441.569 177.004 441.569 177.376C441.569 177.736 441.755 178.018 442.127 178.222C442.511 178.426 443.027 178.6 443.675 178.744C444.227 178.864 444.749 179.014 445.241 179.194C445.745 179.362 446.153 179.62 446.465 179.968C446.789 180.304 446.951 180.796 446.951 181.444C446.963 182.248 446.657 182.914 446.033 183.442C445.421 183.958 444.587 184.216 443.531 184.216Z" fill="#42446E"/>
<path d="M506.858 184.216C505.622 184.216 504.554 183.946 503.654 183.406C502.766 182.854 502.076 182.092 501.584 181.12C501.092 180.136 500.846 178.996 500.846 177.7C500.846 176.416 501.092 175.288 501.584 174.316C502.076 173.332 502.766 172.564 503.654 172.012C504.554 171.46 505.622 171.184 506.858 171.184C508.298 171.184 509.468 171.532 510.368 172.228C511.28 172.912 511.862 173.872 512.114 175.108H510.44C510.248 174.328 509.852 173.704 509.252 173.236C508.664 172.756 507.866 172.516 506.858 172.516C505.958 172.516 505.172 172.726 504.5 173.146C503.828 173.554 503.306 174.148 502.934 174.928C502.574 175.696 502.394 176.62 502.394 177.7C502.394 178.78 502.574 179.71 502.934 180.49C503.306 181.258 503.828 181.852 504.5 182.272C505.172 182.68 505.958 182.884 506.858 182.884C507.866 182.884 508.664 182.656 509.252 182.2C509.852 181.732 510.248 181.114 510.44 180.346H512.114C511.862 181.558 511.28 182.506 510.368 183.19C509.468 183.874 508.298 184.216 506.858 184.216ZM518.265 184.216C517.425 184.216 516.669 184.024 515.997 183.64C515.325 183.256 514.791 182.716 514.395 182.02C514.011 181.312 513.819 180.484 513.819 179.536C513.819 178.588 514.017 177.766 514.413 177.07C514.809 176.362 515.343 175.816 516.015 175.432C516.699 175.048 517.461 174.856 518.301 174.856C519.141 174.856 519.897 175.048 520.569 175.432C521.241 175.816 521.769 176.362 522.153 177.07C522.549 177.766 522.747 178.588 522.747 179.536C522.747 180.484 522.549 181.312 522.153 182.02C521.757 182.716 521.217 183.256 520.533 183.64C519.861 184.024 519.105 184.216 518.265 184.216ZM518.265 182.92C518.781 182.92 519.261 182.794 519.705 182.542C520.149 182.29 520.509 181.912 520.785 181.408C521.061 180.904 521.199 180.28 521.199 179.536C521.199 178.792 521.061 178.168 520.785 177.664C520.521 177.16 520.167 176.782 519.723 176.53C519.279 176.278 518.805 176.152 518.301 176.152C517.785 176.152 517.305 176.278 516.861 176.53C516.417 176.782 516.057 177.16 515.781 177.664C515.505 178.168 515.367 178.792 515.367 179.536C515.367 180.28 515.505 180.904 515.781 181.408C516.057 181.912 516.411 182.29 516.843 182.542C517.287 182.794 517.761 182.92 518.265 182.92ZM524.849 184V175.072H526.217L526.307 176.674C526.595 176.11 527.009 175.666 527.549 175.342C528.089 175.018 528.701 174.856 529.385 174.856C530.441 174.856 531.281 175.18 531.905 175.828C532.541 176.464 532.859 177.448 532.859 178.78V184H531.347V178.942C531.347 177.082 530.579 176.152 529.043 176.152C528.275 176.152 527.633 176.434 527.117 176.998C526.613 177.55 526.361 178.342 526.361 179.374V184H524.849ZM538.678 184C537.862 184 537.22 183.802 536.752 183.406C536.284 183.01 536.05 182.296 536.05 181.264V176.35H534.502V175.072H536.05L536.248 172.93H537.562V175.072H540.19V176.35H537.562V181.264C537.562 181.828 537.676 182.212 537.904 182.416C538.132 182.608 538.534 182.704 539.11 182.704H540.046V184H538.678ZM545.081 184.216C544.337 184.216 543.719 184.09 543.227 183.838C542.735 183.586 542.369 183.25 542.129 182.83C541.889 182.41 541.769 181.954 541.769 181.462C541.769 180.55 542.117 179.848 542.813 179.356C543.509 178.864 544.457 178.618 545.657 178.618H548.069V178.51C548.069 177.73 547.865 177.142 547.457 176.746C547.049 176.338 546.503 176.134 545.819 176.134C545.231 176.134 544.721 176.284 544.289 176.584C543.869 176.872 543.605 177.298 543.497 177.862H541.949C542.009 177.214 542.225 176.668 542.597 176.224C542.981 175.78 543.455 175.444 544.019 175.216C544.583 174.976 545.183 174.856 545.819 174.856C547.067 174.856 548.003 175.192 548.627 175.864C549.263 176.524 549.581 177.406 549.581 178.51V184H548.231L548.141 182.398C547.889 182.902 547.517 183.334 547.025 183.694C546.545 184.042 545.897 184.216 545.081 184.216ZM545.315 182.938C545.891 182.938 546.383 182.788 546.791 182.488C547.211 182.188 547.529 181.798 547.745 181.318C547.961 180.838 548.069 180.334 548.069 179.806V179.788H545.783C544.895 179.788 544.265 179.944 543.893 180.256C543.533 180.556 543.353 180.934 543.353 181.39C543.353 181.858 543.521 182.236 543.857 182.524C544.205 182.8 544.691 182.938 545.315 182.938ZM555.953 184.216C555.101 184.216 554.333 184.024 553.649 183.64C552.977 183.244 552.443 182.698 552.047 182.002C551.663 181.294 551.471 180.472 551.471 179.536C551.471 178.6 551.663 177.784 552.047 177.088C552.443 176.38 552.977 175.834 553.649 175.45C554.333 175.054 555.101 174.856 555.953 174.856C557.009 174.856 557.897 175.132 558.617 175.684C559.349 176.236 559.811 176.974 560.003 177.898H558.455C558.335 177.346 558.041 176.92 557.573 176.62C557.105 176.308 556.559 176.152 555.935 176.152C555.431 176.152 554.957 176.278 554.513 176.53C554.069 176.782 553.709 177.16 553.433 177.664C553.157 178.168 553.019 178.792 553.019 179.536C553.019 180.28 553.157 180.904 553.433 181.408C553.709 181.912 554.069 182.296 554.513 182.56C554.957 182.812 555.431 182.938 555.935 182.938C556.559 182.938 557.105 182.788 557.573 182.488C558.041 182.176 558.335 181.738 558.455 181.174H560.003C559.823 182.074 559.367 182.806 558.635 183.37C557.903 183.934 557.009 184.216 555.953 184.216ZM565.397 184C564.581 184 563.939 183.802 563.471 183.406C563.003 183.01 562.769 182.296 562.769 181.264V176.35H561.221V175.072H562.769L562.967 172.93H564.281V175.072H566.909V176.35H564.281V181.264C564.281 181.828 564.395 182.212 564.623 182.416C564.851 182.608 565.253 182.704 565.829 182.704H566.765V184H565.397Z" fill="#42446E"/>
<path d="M116.54 184L121.184 171.4H122.786L127.412 184H125.81L124.658 180.76H119.294L118.124 184H116.54ZM119.744 179.536H124.208L121.976 173.308L119.744 179.536ZM133.965 184.216C133.233 184.216 132.579 184.066 132.003 183.766C131.439 183.466 131.007 183.046 130.707 182.506L130.563 184H129.195V171.04H130.707V176.548C130.995 176.116 131.403 175.726 131.931 175.378C132.471 175.03 133.155 174.856 133.983 174.856C134.871 174.856 135.645 175.06 136.305 175.468C136.965 175.876 137.475 176.434 137.835 177.142C138.207 177.85 138.393 178.654 138.393 179.554C138.393 180.454 138.207 181.258 137.835 181.966C137.475 182.662 136.959 183.214 136.287 183.622C135.627 184.018 134.853 184.216 133.965 184.216ZM133.803 182.902C134.403 182.902 134.931 182.764 135.387 182.488C135.843 182.2 136.203 181.804 136.467 181.3C136.731 180.796 136.863 180.208 136.863 179.536C136.863 178.864 136.731 178.276 136.467 177.772C136.203 177.268 135.843 176.878 135.387 176.602C134.931 176.314 134.403 176.17 133.803 176.17C133.203 176.17 132.675 176.314 132.219 176.602C131.763 176.878 131.403 177.268 131.139 177.772C130.875 178.276 130.743 178.864 130.743 179.536C130.743 180.208 130.875 180.796 131.139 181.3C131.403 181.804 131.763 182.2 132.219 182.488C132.675 182.764 133.203 182.902 133.803 182.902ZM144.566 184.216C143.726 184.216 142.97 184.024 142.298 183.64C141.626 183.256 141.092 182.716 140.696 182.02C140.312 181.312 140.12 180.484 140.12 179.536C140.12 178.588 140.318 177.766 140.714 177.07C141.11 176.362 141.644 175.816 142.316 175.432C143 175.048 143.762 174.856 144.602 174.856C145.442 174.856 146.198 175.048 146.87 175.432C147.542 175.816 148.07 176.362 148.454 177.07C148.85 177.766 149.048 178.588 149.048 179.536C149.048 180.484 148.85 181.312 148.454 182.02C148.058 182.716 147.518 183.256 146.834 183.64C146.162 184.024 145.406 184.216 144.566 184.216ZM144.566 182.92C145.082 182.92 145.562 182.794 146.006 182.542C146.45 182.29 146.81 181.912 147.086 181.408C147.362 180.904 147.5 180.28 147.5 179.536C147.5 178.792 147.362 178.168 147.086 177.664C146.822 177.16 146.468 176.782 146.024 176.53C145.58 176.278 145.106 176.152 144.602 176.152C144.086 176.152 143.606 176.278 143.162 176.53C142.718 176.782 142.358 177.16 142.082 177.664C141.806 178.168 141.668 178.792 141.668 179.536C141.668 180.28 141.806 180.904 142.082 181.408C142.358 181.912 142.712 182.29 143.144 182.542C143.588 182.794 144.062 182.92 144.566 182.92ZM154.408 184.216C153.352 184.216 152.512 183.898 151.888 183.262C151.264 182.614 150.952 181.624 150.952 180.292V175.072H152.464V180.13C152.464 181.99 153.226 182.92 154.75 182.92C155.53 182.92 156.172 182.644 156.676 182.092C157.192 181.528 157.45 180.73 157.45 179.698V175.072H158.962V184H157.594L157.486 182.398C157.21 182.962 156.796 183.406 156.244 183.73C155.704 184.054 155.092 184.216 154.408 184.216ZM164.979 184C164.163 184 163.521 183.802 163.053 183.406C162.585 183.01 162.351 182.296 162.351 181.264V176.35H160.803V175.072H162.351L162.549 172.93H163.863V175.072H166.491V176.35H163.863V181.264C163.863 181.828 163.977 182.212 164.205 182.416C164.433 182.608 164.835 182.704 165.411 182.704H166.347V184H164.979Z" fill="#42446E"/>
<path d="M224.284 184V172.642H220.522V171.4H229.558V172.642H225.796V184H224.284ZM233.711 184.216C232.859 184.216 232.103 184.024 231.443 183.64C230.783 183.244 230.261 182.698 229.877 182.002C229.505 181.306 229.319 180.484 229.319 179.536C229.319 178.6 229.505 177.784 229.877 177.088C230.249 176.38 230.765 175.834 231.425 175.45C232.097 175.054 232.871 174.856 233.747 174.856C234.611 174.856 235.355 175.054 235.979 175.45C236.615 175.834 237.101 176.344 237.437 176.98C237.773 177.616 237.941 178.3 237.941 179.032C237.941 179.164 237.935 179.296 237.923 179.428C237.923 179.56 237.923 179.71 237.923 179.878H230.813C230.849 180.562 231.005 181.132 231.281 181.588C231.569 182.032 231.923 182.368 232.343 182.596C232.775 182.824 233.231 182.938 233.711 182.938C234.335 182.938 234.857 182.794 235.277 182.506C235.697 182.218 236.003 181.828 236.195 181.336H237.689C237.449 182.164 236.987 182.854 236.303 183.406C235.631 183.946 234.767 184.216 233.711 184.216ZM233.711 176.134C232.991 176.134 232.349 176.356 231.785 176.8C231.233 177.232 230.915 177.868 230.831 178.708H236.447C236.411 177.904 236.135 177.274 235.619 176.818C235.103 176.362 234.467 176.134 233.711 176.134ZM244.049 184.216C243.197 184.216 242.429 184.024 241.745 183.64C241.073 183.244 240.539 182.698 240.143 182.002C239.759 181.294 239.567 180.472 239.567 179.536C239.567 178.6 239.759 177.784 240.143 177.088C240.539 176.38 241.073 175.834 241.745 175.45C242.429 175.054 243.197 174.856 244.049 174.856C245.105 174.856 245.993 175.132 246.713 175.684C247.445 176.236 247.907 176.974 248.099 177.898H246.551C246.431 177.346 246.137 176.92 245.669 176.62C245.201 176.308 244.655 176.152 244.031 176.152C243.527 176.152 243.053 176.278 242.609 176.53C242.165 176.782 241.805 177.16 241.529 177.664C241.253 178.168 241.115 178.792 241.115 179.536C241.115 180.28 241.253 180.904 241.529 181.408C241.805 181.912 242.165 182.296 242.609 182.56C243.053 182.812 243.527 182.938 244.031 182.938C244.655 182.938 245.201 182.788 245.669 182.488C246.137 182.176 246.431 181.738 246.551 181.174H248.099C247.919 182.074 247.463 182.806 246.731 183.37C245.999 183.934 245.105 184.216 244.049 184.216ZM250.211 184V171.04H251.723V176.602C252.023 176.05 252.449 175.624 253.001 175.324C253.553 175.012 254.153 174.856 254.801 174.856C255.833 174.856 256.661 175.18 257.285 175.828C257.909 176.464 258.221 177.448 258.221 178.78V184H256.727V178.942C256.727 177.082 255.977 176.152 254.477 176.152C253.697 176.152 253.043 176.434 252.515 176.998C251.987 177.55 251.723 178.342 251.723 179.374V184H250.211ZM260.512 184V175.072H261.88L261.97 176.674C262.258 176.11 262.672 175.666 263.212 175.342C263.752 175.018 264.364 174.856 265.048 174.856C266.104 174.856 266.944 175.18 267.568 175.828C268.204 176.464 268.522 177.448 268.522 178.78V184H267.01V178.942C267.01 177.082 266.242 176.152 264.706 176.152C263.938 176.152 263.296 176.434 262.78 176.998C262.276 177.55 262.024 178.342 262.024 179.374V184H260.512ZM274.88 184.216C274.04 184.216 273.284 184.024 272.612 183.64C271.94 183.256 271.406 182.716 271.01 182.02C270.626 181.312 270.434 180.484 270.434 179.536C270.434 178.588 270.632 177.766 271.028 177.07C271.424 176.362 271.958 175.816 272.63 175.432C273.314 175.048 274.076 174.856 274.916 174.856C275.756 174.856 276.512 175.048 277.184 175.432C277.856 175.816 278.384 176.362 278.768 177.07C279.164 177.766 279.362 178.588 279.362 179.536C279.362 180.484 279.164 181.312 278.768 182.02C278.372 182.716 277.832 183.256 277.148 183.64C276.476 184.024 275.72 184.216 274.88 184.216ZM274.88 182.92C275.396 182.92 275.876 182.794 276.32 182.542C276.764 182.29 277.124 181.912 277.4 181.408C277.676 180.904 277.814 180.28 277.814 179.536C277.814 178.792 277.676 178.168 277.4 177.664C277.136 177.16 276.782 176.782 276.338 176.53C275.894 176.278 275.42 176.152 274.916 176.152C274.4 176.152 273.92 176.278 273.476 176.53C273.032 176.782 272.672 177.16 272.396 177.664C272.12 178.168 271.982 178.792 271.982 179.536C271.982 180.28 272.12 180.904 272.396 181.408C272.672 181.912 273.026 182.29 273.458 182.542C273.902 182.794 274.376 182.92 274.88 182.92ZM281.465 184V171.04H282.977V184H281.465ZM289.523 184.216C288.683 184.216 287.927 184.024 287.255 183.64C286.583 183.256 286.049 182.716 285.653 182.02C285.269 181.312 285.077 180.484 285.077 179.536C285.077 178.588 285.275 177.766 285.671 177.07C286.067 176.362 286.601 175.816 287.273 175.432C287.957 175.048 288.719 174.856 289.559 174.856C290.399 174.856 291.155 175.048 291.827 175.432C292.499 175.816 293.027 176.362 293.411 177.07C293.807 177.766 294.005 178.588 294.005 179.536C294.005 180.484 293.807 181.312 293.411 182.02C293.015 182.716 292.475 183.256 291.791 183.64C291.119 184.024 290.363 184.216 289.523 184.216ZM289.523 182.92C290.039 182.92 290.519 182.794 290.963 182.542C291.407 182.29 291.767 181.912 292.043 181.408C292.319 180.904 292.457 180.28 292.457 179.536C292.457 178.792 292.319 178.168 292.043 177.664C291.779 177.16 291.425 176.782 290.981 176.53C290.537 176.278 290.063 176.152 289.559 176.152C289.043 176.152 288.563 176.278 288.119 176.53C287.675 176.782 287.315 177.16 287.039 177.664C286.763 178.168 286.625 178.792 286.625 179.536C286.625 180.28 286.763 180.904 287.039 181.408C287.315 181.912 287.669 182.29 288.101 182.542C288.545 182.794 289.019 182.92 289.523 182.92ZM299.249 181.192C298.745 181.192 298.283 181.126 297.863 180.994L296.963 181.84C297.095 181.936 297.257 182.02 297.449 182.092C297.653 182.152 297.941 182.212 298.313 182.272C298.685 182.32 299.207 182.374 299.879 182.434C301.079 182.518 301.937 182.794 302.453 183.262C302.969 183.73 303.227 184.342 303.227 185.098C303.227 185.614 303.083 186.106 302.795 186.574C302.519 187.042 302.087 187.426 301.499 187.726C300.923 188.026 300.179 188.176 299.267 188.176C298.463 188.176 297.749 188.068 297.125 187.852C296.501 187.648 296.015 187.33 295.667 186.898C295.319 186.478 295.145 185.944 295.145 185.296C295.145 184.96 295.235 184.594 295.415 184.198C295.595 183.814 295.931 183.448 296.423 183.1C296.159 182.992 295.931 182.878 295.739 182.758C295.559 182.626 295.391 182.482 295.235 182.326V181.912L296.765 180.4C296.057 179.8 295.703 179.008 295.703 178.024C295.703 177.436 295.841 176.902 296.117 176.422C296.393 175.942 296.795 175.564 297.323 175.288C297.851 175 298.493 174.856 299.249 174.856C299.765 174.856 300.233 174.928 300.653 175.072H303.947V176.206L302.273 176.278C302.621 176.782 302.795 177.364 302.795 178.024C302.795 178.612 302.651 179.146 302.363 179.626C302.087 180.106 301.685 180.49 301.157 180.778C300.641 181.054 300.005 181.192 299.249 181.192ZM299.249 179.95C299.885 179.95 300.389 179.788 300.761 179.464C301.145 179.128 301.337 178.648 301.337 178.024C301.337 177.412 301.145 176.944 300.761 176.62C300.389 176.284 299.885 176.116 299.249 176.116C298.601 176.116 298.085 176.284 297.701 176.62C297.329 176.944 297.143 177.412 297.143 178.024C297.143 178.648 297.329 179.128 297.701 179.464C298.085 179.788 298.601 179.95 299.249 179.95ZM296.621 185.152C296.621 185.752 296.873 186.196 297.377 186.484C297.881 186.784 298.511 186.934 299.267 186.934C300.011 186.934 300.605 186.772 301.049 186.448C301.505 186.124 301.733 185.692 301.733 185.152C301.733 184.768 301.577 184.432 301.265 184.144C300.953 183.868 300.377 183.706 299.537 183.658C298.877 183.61 298.307 183.55 297.827 183.478C297.335 183.742 297.011 184.024 296.855 184.324C296.699 184.636 296.621 184.912 296.621 185.152ZM306.57 173.092C306.27 173.092 306.018 172.996 305.814 172.804C305.622 172.6 305.526 172.348 305.526 172.048C305.526 171.76 305.622 171.52 305.814 171.328C306.018 171.136 306.27 171.04 306.57 171.04C306.858 171.04 307.104 171.136 307.308 171.328C307.512 171.52 307.614 171.76 307.614 172.048C307.614 172.348 307.512 172.6 307.308 172.804C307.104 172.996 306.858 173.092 306.57 173.092ZM305.814 184V175.072H307.326V184H305.814ZM313.973 184.216C313.121 184.216 312.365 184.024 311.705 183.64C311.045 183.244 310.523 182.698 310.139 182.002C309.767 181.306 309.581 180.484 309.581 179.536C309.581 178.6 309.767 177.784 310.139 177.088C310.511 176.38 311.027 175.834 311.687 175.45C312.359 175.054 313.133 174.856 314.009 174.856C314.873 174.856 315.617 175.054 316.241 175.45C316.877 175.834 317.363 176.344 317.699 176.98C318.035 177.616 318.203 178.3 318.203 179.032C318.203 179.164 318.197 179.296 318.185 179.428C318.185 179.56 318.185 179.71 318.185 179.878H311.075C311.111 180.562 311.267 181.132 311.543 181.588C311.831 182.032 312.185 182.368 312.605 182.596C313.037 182.824 313.493 182.938 313.973 182.938C314.597 182.938 315.119 182.794 315.539 182.506C315.959 182.218 316.265 181.828 316.457 181.336H317.951C317.711 182.164 317.249 182.854 316.565 183.406C315.893 183.946 315.029 184.216 313.973 184.216ZM313.973 176.134C313.253 176.134 312.611 176.356 312.047 176.8C311.495 177.232 311.177 177.868 311.093 178.708H316.709C316.673 177.904 316.397 177.274 315.881 176.818C315.365 176.362 314.729 176.134 313.973 176.134ZM323.627 184.216C322.559 184.216 321.671 183.946 320.963 183.406C320.255 182.866 319.841 182.134 319.721 181.21H321.269C321.365 181.678 321.611 182.086 322.007 182.434C322.415 182.77 322.961 182.938 323.645 182.938C324.281 182.938 324.749 182.806 325.049 182.542C325.349 182.266 325.499 181.942 325.499 181.57C325.499 181.03 325.301 180.67 324.905 180.49C324.521 180.31 323.975 180.148 323.267 180.004C322.787 179.908 322.307 179.77 321.827 179.59C321.347 179.41 320.945 179.158 320.621 178.834C320.297 178.498 320.135 178.06 320.135 177.52C320.135 176.74 320.423 176.104 320.999 175.612C321.587 175.108 322.379 174.856 323.375 174.856C324.323 174.856 325.097 175.096 325.697 175.576C326.309 176.044 326.663 176.716 326.759 177.592H325.265C325.205 177.136 325.007 176.782 324.671 176.53C324.347 176.266 323.909 176.134 323.357 176.134C322.817 176.134 322.397 176.248 322.097 176.476C321.809 176.704 321.665 177.004 321.665 177.376C321.665 177.736 321.851 178.018 322.223 178.222C322.607 178.426 323.123 178.6 323.771 178.744C324.323 178.864 324.845 179.014 325.337 179.194C325.841 179.362 326.249 179.62 326.561 179.968C326.885 180.304 327.047 180.796 327.047 181.444C327.059 182.248 326.753 182.914 326.129 183.442C325.517 183.958 324.683 184.216 323.627 184.216Z" fill="#42446E"/>
<path d="M15.332 184.2V171.6H16.844V177.162H23.378V171.6H24.89V184.2H23.378V178.404H16.844V184.2H15.332ZM31.5268 184.416C30.6868 184.416 29.9308 184.224 29.2588 183.84C28.5868 183.456 28.0528 182.916 27.6568 182.22C27.2728 181.512 27.0808 180.684 27.0808 179.736C27.0808 178.788 27.2788 177.966 27.6748 177.27C28.0708 176.562 28.6048 176.016 29.2768 175.632C29.9608 175.248 30.7228 175.056 31.5628 175.056C32.4028 175.056 33.1588 175.248 33.8308 175.632C34.5028 176.016 35.0308 176.562 35.4148 177.27C35.8108 177.966 36.0088 178.788 36.0088 179.736C36.0088 180.684 35.8108 181.512 35.4148 182.22C35.0188 182.916 34.4788 183.456 33.7948 183.84C33.1228 184.224 32.3668 184.416 31.5268 184.416ZM31.5268 183.12C32.0428 183.12 32.5228 182.994 32.9668 182.742C33.4108 182.49 33.7708 182.112 34.0468 181.608C34.3228 181.104 34.4608 180.48 34.4608 179.736C34.4608 178.992 34.3228 178.368 34.0468 177.864C33.7828 177.36 33.4288 176.982 32.9848 176.73C32.5408 176.478 32.0668 176.352 31.5628 176.352C31.0468 176.352 30.5668 176.478 30.1228 176.73C29.6788 176.982 29.3188 177.36 29.0428 177.864C28.7668 178.368 28.6288 178.992 28.6288 179.736C28.6288 180.48 28.7668 181.104 29.0428 181.608C29.3188 182.112 29.6728 182.49 30.1048 182.742C30.5488 182.994 31.0228 183.12 31.5268 183.12ZM38.1111 184.2V175.272H39.4791L39.5871 176.568C39.8751 176.088 40.2591 175.716 40.7391 175.452C41.2191 175.188 41.7591 175.056 42.3591 175.056C43.0671 175.056 43.6731 175.2 44.1771 175.488C44.6931 175.776 45.0891 176.214 45.3651 176.802C45.6771 176.262 46.1031 175.836 46.6431 175.524C47.1951 175.212 47.7891 175.056 48.4251 175.056C49.4931 175.056 50.3451 175.38 50.9811 176.028C51.6171 176.664 51.9351 177.648 51.9351 178.98V184.2H50.4411V179.142C50.4411 178.218 50.2551 177.522 49.8831 177.054C49.5111 176.586 48.9771 176.352 48.2811 176.352C47.5611 176.352 46.9611 176.634 46.4811 177.198C46.0131 177.75 45.7791 178.542 45.7791 179.574V184.2H44.2671V179.142C44.2671 178.218 44.0811 177.522 43.7091 177.054C43.3371 176.586 42.8031 176.352 42.1071 176.352C41.3991 176.352 40.8051 176.634 40.3251 177.198C39.8571 177.75 39.6231 178.542 39.6231 179.574V184.2H38.1111ZM58.2267 184.416C57.3747 184.416 56.6187 184.224 55.9587 183.84C55.2987 183.444 54.7767 182.898 54.3927 182.202C54.0207 181.506 53.8347 180.684 53.8347 179.736C53.8347 178.8 54.0207 177.984 54.3927 177.288C54.7647 176.58 55.2807 176.034 55.9407 175.65C56.6127 175.254 57.3867 175.056 58.2627 175.056C59.1267 175.056 59.8707 175.254 60.4947 175.65C61.1307 176.034 61.6167 176.544 61.9527 177.18C62.2887 177.816 62.4567 178.5 62.4567 179.232C62.4567 179.364 62.4507 179.496 62.4387 179.628C62.4387 179.76 62.4387 179.91 62.4387 180.078H55.3287C55.3647 180.762 55.5207 181.332 55.7967 181.788C56.0847 182.232 56.4387 182.568 56.8587 182.796C57.2907 183.024 57.7467 183.138 58.2267 183.138C58.8507 183.138 59.3727 182.994 59.7927 182.706C60.2127 182.418 60.5187 182.028 60.7107 181.536H62.2047C61.9647 182.364 61.5027 183.054 60.8187 183.606C60.1467 184.146 59.2827 184.416 58.2267 184.416ZM58.2267 176.334C57.5067 176.334 56.8647 176.556 56.3007 177C55.7487 177.432 55.4307 178.068 55.3467 178.908H60.9627C60.9267 178.104 60.6507 177.474 60.1347 177.018C59.6187 176.562 58.9827 176.334 58.2267 176.334Z" fill="#42446E"/>
<g clip-path="url(#clip0_6_253)">
<path d="M16.5581 0V3.83066C15.5028 3.83066 14.6796 3.98157 14.0882 4.28338C13.4968 4.57357 13.2417 5.15977 13.3229 6.04199L13.8621 11.1785C14.0012 12.4786 13.8563 13.5292 13.4272 14.3301C13.0098 15.131 12.3662 15.7464 11.4966 16.1758C10.6385 16.5937 9.62386 16.8897 8.45271 17.0638C9.69343 17.2495 10.7428 17.5514 11.6009 17.9693C12.459 18.3871 13.0852 18.9907 13.4794 19.7801C13.8737 20.5695 14.0012 21.6258 13.8621 22.9492L13.3229 28.0857C13.2417 28.9679 13.4968 29.5541 14.0882 29.8443C14.6796 30.146 15.5028 30.297 16.5581 30.297V34.1277C13.3577 34.1277 11.1081 33.6401 9.80939 32.6651C8.52229 31.7016 8.00048 30.0475 8.24398 27.7026L8.76579 22.7227C8.85856 21.8406 8.70782 21.1499 8.31357 20.6507C7.93091 20.1516 7.36272 19.8033 6.60901 19.6059C5.85529 19.3971 4.98563 19.2926 4 19.2926V14.8351C4.97403 14.8351 5.8379 14.7364 6.59162 14.5391C7.34533 14.3301 7.91932 13.9761 8.31357 13.477C8.70782 12.9778 8.85856 12.2871 8.76579 11.4049L8.24398 6.45987C7.98889 4.06862 8.51068 2.39706 9.80939 1.4452C11.1081 0.481734 13.3577 0 16.5581 0Z" fill="#42446E"/>
<path d="M31.633 4.50977C34.5087 4.50977 36.6771 5.62414 38.1381 7.85288C39.6108 10.07 40.3471 13.1636 40.3471 17.1335C40.3471 21.115 39.6108 24.2318 38.1381 26.4838C36.6771 28.7242 34.5087 29.8443 31.633 29.8443C28.7342 29.8443 26.5541 28.7242 25.0931 26.4838C23.6436 24.2318 22.9189 21.115 22.9189 17.1335C22.9189 13.1636 23.6436 10.07 25.0931 7.85288C26.5541 5.62414 28.7342 4.50977 31.633 4.50977ZM31.633 8.49713C30.4039 8.49713 29.5052 9.15879 28.937 10.4821C28.3689 11.7938 28.0847 14.0109 28.0847 17.1335C28.0847 18.1551 28.1022 19.0663 28.1369 19.8672C28.1718 20.6566 28.224 21.3589 28.2935 21.9741L34.1724 9.66374C33.8942 9.22264 33.5463 8.92083 33.1289 8.75831C32.7231 8.5842 32.2244 8.49713 31.633 8.49713ZM35.1465 17.1335C35.1465 15.7986 35.1175 14.6726 35.0595 13.7555L29.511 25.2302C29.7662 25.4739 30.0676 25.6422 30.4154 25.7351C30.775 25.8279 31.1808 25.8744 31.633 25.8744C32.4564 25.8744 33.1231 25.5958 33.6333 25.0387C34.1551 24.4815 34.5377 23.5644 34.7812 22.2875C35.0248 20.999 35.1465 19.281 35.1465 17.1335Z" fill="#42446E"/>
<path d="M52.5 4.50977C55.3757 4.50977 57.5441 5.62414 59.0051 7.85288C60.4778 10.07 61.214 13.1636 61.214 17.1335C61.214 21.115 60.4778 24.2318 59.0051 26.4838C57.5441 28.7242 55.3757 29.8443 52.5 29.8443C49.601 29.8443 47.4211 28.7242 45.9601 26.4838C44.5106 24.2318 43.7859 21.115 43.7859 17.1335C43.7859 13.1636 44.5106 10.07 45.9601 7.85288C47.4211 5.62414 49.601 4.50977 52.5 4.50977ZM52.5 8.49713C51.2709 8.49713 50.3722 9.15879 49.804 10.4821C49.2359 11.7938 48.9518 14.0109 48.9518 17.1335C48.9518 18.1551 48.9692 19.0663 49.0039 19.8672C49.0387 20.6566 49.0909 21.3589 49.1605 21.9741L55.0394 9.66374C54.7611 9.22264 54.4132 8.92083 53.9959 8.75831C53.5899 8.5842 53.0913 8.49713 52.5 8.49713ZM56.0135 17.1335C56.0135 15.7986 55.9845 14.6726 55.9265 13.7555L50.378 25.2302C50.633 25.4739 50.9346 25.6422 51.2825 25.7351C51.642 25.8279 52.0478 25.8744 52.5 25.8744C53.3233 25.8744 53.99 25.5958 54.5003 25.0387C55.022 24.4815 55.4047 23.5644 55.6482 22.2875C55.8917 20.999 56.0135 19.281 56.0135 17.1335Z" fill="#42446E"/>
<path d="M72.1146 29.8095L66.8966 28.1902L75.889 9.26321H65.2964V5.11914H81.4549V8.84532L72.1146 29.8095Z" fill="#42446E"/>
<path d="M88.442 0C91.6423 0 93.8861 0.481734 95.1733 1.4452C96.472 2.40867 96.9996 4.06862 96.7561 6.42505L96.2342 11.4049C96.1414 12.2871 96.2922 12.9778 96.6865 13.477C97.0807 13.9761 97.6488 14.3301 98.391 14.5391C99.1447 14.7364 100.014 14.8351 101 14.8351V19.2926C100.026 19.2926 99.1622 19.3971 98.4084 19.6059C97.6547 19.8033 97.0807 20.1516 96.6865 20.6507C96.2922 21.1499 96.1414 21.8406 96.2342 22.7227L96.7561 27.6678C97.0228 30.0475 96.5009 31.719 95.1906 32.6824C93.8919 33.646 91.6423 34.1277 88.442 34.1277V30.297C89.5088 30.297 90.3379 30.146 90.9292 29.8443C91.5207 29.5541 91.7699 28.9679 91.6772 28.0857L91.1379 22.9492C90.9988 21.6374 91.1379 20.5868 91.5554 19.7976C91.9844 18.9965 92.6338 18.3871 93.5035 17.9693C94.3731 17.5397 95.3935 17.238 96.5647 17.0638C95.3239 16.8781 94.2688 16.5763 93.3991 16.1584C92.541 15.7405 91.9149 15.1369 91.5207 14.3476C91.1264 13.5466 90.9988 12.4903 91.1379 11.1785L91.6772 6.04199C91.7699 5.15977 91.5148 4.57357 90.9119 4.28338C90.3204 3.98157 89.4972 3.83066 88.442 3.83066V0Z" fill="#42446E"/>
<path d="M16.2745 42.162C17.2416 42.162 18.0208 42.4023 18.6121 42.8829C19.2036 43.3634 19.6349 44.0425 19.9063 44.9201C20.1845 45.7976 20.3238 46.8388 20.3238 48.0438C20.3238 49.1861 20.1568 50.2064 19.8228 51.1048C19.4888 51.9963 19.0053 52.6998 18.3722 53.2151C17.739 53.7237 16.9703 53.9778 16.0658 53.9778C14.9874 53.9778 14.1108 53.5913 13.4359 52.8181V57.906L10.1381 58.2508V42.5277H13.0602L13.2063 43.7708C13.6586 43.1928 14.1525 42.7819 14.6882 42.5381C15.224 42.2874 15.7527 42.162 16.2745 42.162ZM15.2518 44.5962C14.8691 44.5962 14.5317 44.7112 14.2395 44.941C13.9473 45.1707 13.6794 45.4842 13.4359 45.8812V50.5616C13.6655 50.9028 13.9055 51.1536 14.156 51.3137C14.4134 51.4739 14.7161 51.554 15.0639 51.554C15.6484 51.554 16.1041 51.2894 16.4311 50.76C16.7581 50.2237 16.9215 49.3323 16.9215 48.0856C16.9215 47.1662 16.8555 46.4558 16.7232 45.9543C16.5911 45.446 16.3998 45.0942 16.1493 44.8992C15.8988 44.6971 15.5997 44.5962 15.2518 44.5962Z" fill="#42446E"/>
<path d="M31.9882 50.4258C31.9882 50.8436 32.0438 51.1466 32.1552 51.3346C32.2734 51.5227 32.4613 51.6655 32.7186 51.763L32.0404 53.9361C31.3863 53.8734 30.8333 53.7305 30.3809 53.5077C29.9357 53.2778 29.5844 52.9331 29.3269 52.4735C28.9026 52.9818 28.3599 53.3614 27.6989 53.6122C27.038 53.8559 26.3632 53.9778 25.6743 53.9778C24.5333 53.9778 23.6219 53.654 22.94 53.0062C22.2652 52.3515 21.9278 51.5123 21.9278 50.4885C21.9278 49.2835 22.3974 48.3537 23.3366 47.699C24.2828 47.0444 25.6117 46.717 27.3232 46.717H28.8155V46.2991C28.8155 45.1639 28.0851 44.5962 26.6239 44.5962C26.2692 44.5962 25.8134 44.6485 25.2569 44.7529C24.7003 44.8504 24.1437 44.9931 23.5871 45.1812L22.8252 42.9874C23.5419 42.7157 24.2864 42.5102 25.0586 42.3709C25.8378 42.2317 26.5336 42.162 27.1458 42.162C28.7947 42.162 30.0122 42.4998 30.7984 43.1753C31.5916 43.844 31.9882 44.8121 31.9882 46.0797V50.4258ZM26.8118 51.6167C27.1667 51.6167 27.5389 51.5123 27.9285 51.3033C28.3181 51.0875 28.6138 50.7845 28.8155 50.3945V48.5975H28.0016C27.0832 48.5975 26.4083 48.7402 25.977 49.0258C25.5456 49.3044 25.3299 49.7153 25.3299 50.2586C25.3299 50.6834 25.4586 51.0178 25.7161 51.2615C25.9804 51.4984 26.3457 51.6167 26.8118 51.6167Z" fill="#42446E"/>
<path d="M45.6355 42.5277L41.9411 53.6227H38.0589L34.3227 42.5277H37.8815L40.0418 51.0944L42.2958 42.5277H45.6355Z" fill="#42446E"/>
<path d="M57.0286 50.4258C57.0286 50.8436 57.0842 51.1466 57.1956 51.3346C57.3138 51.5227 57.5017 51.6655 57.759 51.763L57.0808 53.9361C56.4267 53.8734 55.8737 53.7305 55.4214 53.5077C54.9761 53.2778 54.6248 52.9331 54.3673 52.4735C53.943 52.9818 53.4003 53.3614 52.7393 53.6122C52.0784 53.8559 51.4036 53.9778 50.7147 53.9778C49.5737 53.9778 48.6623 53.654 47.9804 53.0062C47.3056 52.3515 46.9682 51.5123 46.9682 50.4885C46.9682 49.2835 47.4379 48.3537 48.377 47.699C49.3232 47.0444 50.6521 46.717 52.3636 46.717H53.8559V46.2991C53.8559 45.1639 53.1255 44.5962 51.6645 44.5962C51.3096 44.5962 50.8538 44.6485 50.2973 44.7529C49.7407 44.8504 49.1841 44.9931 48.6275 45.1812L47.8658 42.9874C48.5823 42.7157 49.3268 42.5102 50.099 42.3709C50.8783 42.2317 51.574 42.162 52.1862 42.162C53.8351 42.162 55.0526 42.4998 55.8388 43.1753C56.632 43.844 57.0286 44.8121 57.0286 46.0797V50.4258ZM51.8522 51.6167C52.2071 51.6167 52.5793 51.5123 52.9689 51.3033C53.3585 51.0875 53.6542 50.7845 53.8559 50.3945V48.5975H53.042C52.1236 48.5975 51.4487 48.7402 51.0174 49.0258C50.5861 49.3044 50.3703 49.7153 50.3703 50.2586C50.3703 50.6834 50.4991 51.0178 50.7565 51.2615C51.0208 51.4984 51.3861 51.6167 51.8522 51.6167Z" fill="#42446E"/>
<path d="M60.2189 53.6226V42.5277H63.0993L63.3289 43.8126C63.8229 43.2555 64.3446 42.8411 64.8943 42.5695C65.4439 42.2978 66.0701 42.162 66.7728 42.162C67.7189 42.162 68.4634 42.451 69.0061 43.0292C69.5487 43.6072 69.82 44.4221 69.82 45.4737V53.6226H66.5223V46.4245C66.5223 45.7419 66.4458 45.2683 66.2927 45.0036C66.1466 44.732 65.8683 44.5962 65.4577 44.5962C65.1099 44.5962 64.776 44.7076 64.4559 44.9306C64.1428 45.1534 63.8297 45.4633 63.5168 45.8603V53.6226H60.2189Z" fill="#42446E"/>
<path d="M80.9314 42.162C81.7175 42.162 82.2985 42.4197 82.6742 42.9351C83.0568 43.4435 83.2481 44.2689 83.2481 45.411V53.6226H80.42V45.7872C80.42 45.3972 80.3817 45.1221 80.3052 44.9619C80.2356 44.8016 80.0895 44.7216 79.8669 44.7216C79.693 44.7216 79.512 44.7738 79.3242 44.8783C79.1433 44.9758 78.9416 45.1639 78.719 45.4424V53.6226H76.4021V45.7872C76.4021 45.3972 76.3638 45.1221 76.2873 44.9619C76.2177 44.8016 76.0716 44.7216 75.849 44.7216C75.6751 44.7216 75.4942 44.7738 75.3063 44.8783C75.1254 44.9758 74.9237 45.1639 74.7011 45.4424V53.6226H71.8311V42.5277H74.2523L74.4715 43.6037C74.8193 43.1301 75.1707 42.7714 75.5255 42.5277C75.8803 42.2839 76.3012 42.162 76.7883 42.162C77.2057 42.162 77.5605 42.2699 77.8527 42.4859C78.152 42.6948 78.3641 43.0256 78.4894 43.4783C78.8233 43.0883 79.1921 42.7714 79.5955 42.5277C79.9991 42.2839 80.4443 42.162 80.9314 42.162Z" fill="#42446E"/>
<path d="M95.1004 40.7517L95.8728 43.1754C95.4832 43.3287 95.0274 43.4401 94.5057 43.5097C93.9838 43.5794 93.3751 43.6142 92.6794 43.6142C93.3751 43.9137 93.9038 44.2863 94.2656 44.7321C94.6344 45.1708 94.8187 45.7489 94.8187 46.4664C94.8187 47.1837 94.6274 47.8245 94.2448 48.3886C93.862 48.9458 93.3195 49.3846 92.6168 49.705C91.9141 50.0254 91.0826 50.1856 90.1225 50.1856C89.6633 50.1856 89.2354 50.1438 88.8389 50.0602C88.7205 50.1229 88.6302 50.2133 88.5676 50.3318C88.5049 50.4502 88.4736 50.5721 88.4736 50.6975C88.4736 50.8716 88.5431 51.0283 88.6824 51.1675C88.8285 51.3069 89.1659 51.3765 89.6946 51.3765H91.5105C92.3732 51.3765 93.1176 51.5158 93.7438 51.7944C94.3769 52.0729 94.8674 52.4526 95.2153 52.9331C95.5631 53.4137 95.7371 53.964 95.7371 54.5839C95.7371 55.7191 95.2397 56.6141 94.2448 57.2688C93.2498 57.9234 91.7714 58.2509 89.8094 58.2509C88.3901 58.2509 87.2908 58.1046 86.5117 57.8121C85.7393 57.5265 85.2002 57.1156 84.8941 56.5792C84.5949 56.0499 84.4453 55.4196 84.4453 54.6882H87.3673C87.3673 55.0087 87.43 55.2699 87.5552 55.4718C87.6874 55.6808 87.9344 55.8341 88.2962 55.9315C88.6649 56.029 89.1972 56.0778 89.8929 56.0778C90.5956 56.0778 91.1313 56.022 91.5 55.9107C91.8688 55.7992 92.1192 55.646 92.2515 55.4509C92.3906 55.2629 92.4602 55.0505 92.4602 54.8136C92.4602 54.4863 92.3314 54.2217 92.0741 54.0197C91.8166 53.8178 91.4097 53.7167 90.853 53.7167H89.0893C87.8926 53.7167 87.0229 53.4973 86.4803 53.0585C85.9376 52.6128 85.6663 52.0938 85.6663 51.5019C85.6663 51.091 85.7741 50.701 85.9898 50.3318C86.2124 49.9627 86.5221 49.6527 86.9187 49.402C86.209 49.0258 85.701 48.5836 85.3949 48.0752C85.0888 47.5598 84.9358 46.9434 84.9358 46.226C84.9358 45.3902 85.148 44.6729 85.5724 44.0739C85.9968 43.4679 86.5811 43.0013 87.3256 42.674C88.077 42.3467 88.9329 42.1829 89.8929 42.1829C90.7208 42.1968 91.441 42.1412 92.0532 42.0158C92.6654 41.8834 93.2151 41.7059 93.7021 41.4829C94.189 41.2531 94.6552 41.0093 95.1004 40.7517ZM89.9764 44.3246C89.4546 44.3246 89.0406 44.4918 88.7345 44.8262C88.4283 45.1535 88.2753 45.6062 88.2753 46.1843C88.2753 46.7971 88.4319 47.2673 88.745 47.5946C89.058 47.9219 89.4686 48.0857 89.9764 48.0857C91.1034 48.0857 91.667 47.4379 91.667 46.1425C91.667 44.9306 91.1034 44.3246 89.9764 44.3246Z" fill="#42446E"/>
</g>
<path opacity="0.3" d="M13 103.841H1222" stroke="#666666" stroke-width="2" stroke-linecap="square"/>
<g clip-path="url(#clip1_6_253)">
<path d="M1200 20.6C1192.05 20.6 1185.6 27.047 1185.6 35C1185.6 42.953 1192.05 49.4 1200 49.4C1207.95 49.4 1214.4 42.953 1214.4 35C1214.4 27.047 1207.95 20.6 1200 20.6ZM1196.47 40.9685H1193.56V31.5845H1196.47V40.9685ZM1195 30.4325C1194.08 30.4325 1193.48 29.78 1193.48 28.973C1193.48 28.1495 1194.1 27.5165 1195.04 27.5165C1195.98 27.5165 1196.55 28.1495 1196.57 28.973C1196.57 29.78 1195.98 30.4325 1195 30.4325ZM1207.12 40.9685H1204.21V35.768C1204.21 34.5575 1203.79 33.7355 1202.73 33.7355C1201.93 33.7355 1201.45 34.292 1201.24 34.8275C1201.16 35.018 1201.14 35.288 1201.14 35.5565V40.967H1198.22V34.577C1198.22 33.4055 1198.18 32.426 1198.14 31.583H1200.68L1200.81 32.8865H1200.87C1201.25 32.2745 1202.19 31.3715 1203.77 31.3715C1205.69 31.3715 1207.12 32.657 1207.12 35.42V40.9685V40.9685Z" fill="#42446E"/>
</g>
<path d="M1151.87 19.875C1143.59 19.875 1136.88 26.5915 1136.88 34.875C1136.88 43.1585 1143.59 49.875 1151.87 49.875C1160.16 49.875 1166.87 43.1585 1166.87 34.875C1166.87 26.5915 1160.16 19.875 1151.87 19.875ZM1159.08 31.1819C1159.09 31.3393 1159.09 31.5033 1159.09 31.6641C1159.09 36.5792 1155.35 42.2411 1148.51 42.2411C1146.4 42.2411 1144.45 41.6283 1142.8 40.5737C1143.1 40.6071 1143.39 40.6205 1143.7 40.6205C1145.44 40.6205 1147.04 40.0312 1148.31 39.0335C1146.68 39 1145.31 37.9286 1144.84 36.4554C1145.41 36.5391 1145.93 36.5391 1146.51 36.3884C1145.67 36.2175 1144.92 35.7605 1144.37 35.0953C1143.83 34.43 1143.54 33.5973 1143.54 32.7388V32.692C1144.03 32.9699 1144.61 33.1406 1145.22 33.1641C1144.71 32.8245 1144.29 32.3645 1144 31.8249C1143.71 31.2852 1143.56 30.6825 1143.56 30.0703C1143.56 29.3772 1143.74 28.7444 1144.06 28.1953C1145 29.3449 1146.16 30.2851 1147.48 30.9548C1148.8 31.6245 1150.25 32.0088 1151.73 32.0826C1151.21 29.5547 1153.09 27.5089 1155.36 27.5089C1156.44 27.5089 1157.4 27.9576 1158.08 28.6808C1158.92 28.5234 1159.72 28.2087 1160.44 27.7868C1160.16 28.6473 1159.58 29.3739 1158.81 29.8326C1159.56 29.7522 1160.28 29.5446 1160.95 29.2533C1160.44 29.9967 1159.81 30.6563 1159.08 31.1819V31.1819Z" fill="#42446E"/>
<path fill-rule="evenodd" clip-rule="evenodd" d="M1100 20C1091.71 20 1085 26.7125 1085 35C1085 41.6375 1089.29 47.2438 1095.26 49.2313C1096.01 49.3625 1096.29 48.9125 1096.29 48.5188C1096.29 48.1625 1096.27 46.9812 1096.27 45.725C1092.5 46.4187 1091.53 44.8063 1091.23 43.9625C1091.06 43.5313 1090.32 42.2 1089.69 41.8438C1089.16 41.5625 1088.41 40.8688 1089.67 40.85C1090.85 40.8313 1091.69 41.9375 1091.97 42.3875C1093.32 44.6562 1095.48 44.0187 1096.34 43.625C1096.47 42.65 1096.87 41.9938 1097.3 41.6188C1093.96 41.2438 1090.48 39.95 1090.48 34.2125C1090.48 32.5812 1091.06 31.2313 1092.01 30.1813C1091.86 29.8063 1091.34 28.2688 1092.16 26.2063C1092.16 26.2063 1093.42 25.8125 1096.29 27.7438C1097.49 27.4063 1098.76 27.2375 1100.04 27.2375C1101.31 27.2375 1102.59 27.4063 1103.79 27.7438C1106.66 25.7938 1107.91 26.2063 1107.91 26.2063C1108.74 28.2688 1108.21 29.8063 1108.06 30.1813C1109.02 31.2313 1109.6 32.5625 1109.6 34.2125C1109.6 39.9687 1106.09 41.2438 1102.76 41.6188C1103.3 42.0875 1103.77 42.9875 1103.77 44.3937C1103.77 46.4 1103.75 48.0125 1103.75 48.5188C1103.75 48.9125 1104.03 49.3813 1104.78 49.2313C1107.76 48.2259 1110.35 46.3121 1112.18 43.7592C1114.01 41.2063 1115 38.1429 1115 35C1115 26.7125 1108.29 20 1100 20Z" fill="#42446E"/>
<path d="M624.056 40.216C622.94 40.216 621.974 39.946 621.158 39.406C620.354 38.854 619.736 38.092 619.304 37.12C618.872 36.136 618.656 34.996 618.656 33.7C618.656 32.404 618.872 31.27 619.304 30.298C619.736 29.314 620.354 28.552 621.158 28.012C621.974 27.46 622.94 27.184 624.056 27.184C625.172 27.184 626.132 27.46 626.936 28.012C627.74 28.552 628.358 29.314 628.79 30.298C629.222 31.27 629.438 32.404 629.438 33.7C629.438 34.996 629.222 36.136 628.79 37.12C628.358 38.092 627.74 38.854 626.936 39.406C626.132 39.946 625.172 40.216 624.056 40.216ZM624.056 38.884C624.788 38.884 625.442 38.68 626.018 38.272C626.606 37.852 627.062 37.258 627.386 36.49C627.722 35.71 627.89 34.78 627.89 33.7C627.89 32.62 627.722 31.696 627.386 30.928C627.062 30.16 626.606 29.572 626.018 29.164C625.442 28.744 624.788 28.534 624.056 28.534C623.312 28.534 622.652 28.744 622.076 29.164C621.5 29.572 621.044 30.16 620.708 30.928C620.372 31.696 620.204 32.62 620.204 33.7C620.204 34.78 620.372 35.71 620.708 36.49C621.044 37.258 621.5 37.852 622.076 38.272C622.652 38.68 623.312 38.884 624.056 38.884ZM632.864 40V29.092L630.83 29.542V28.498L633.368 27.4H634.394V40H632.864ZM641.968 40.216C640.852 40.216 639.886 39.946 639.07 39.406C638.266 38.854 637.648 38.092 637.216 37.12C636.784 36.136 636.568 34.996 636.568 33.7C636.568 32.404 636.784 31.27 637.216 30.298C637.648 29.314 638.266 28.552 639.07 28.012C639.886 27.46 640.852 27.184 641.968 27.184C643.084 27.184 644.044 27.46 644.848 28.012C645.652 28.552 646.27 29.314 646.702 30.298C647.134 31.27 647.35 32.404 647.35 33.7C647.35 34.996 647.134 36.136 646.702 37.12C646.27 38.092 645.652 38.854 644.848 39.406C644.044 39.946 643.084 40.216 641.968 40.216ZM641.968 38.884C642.7 38.884 643.354 38.68 643.93 38.272C644.518 37.852 644.974 37.258 645.298 36.49C645.634 35.71 645.802 34.78 645.802 33.7C645.802 32.62 645.634 31.696 645.298 30.928C644.974 30.16 644.518 29.572 643.93 29.164C643.354 28.744 642.7 28.534 641.968 28.534C641.224 28.534 640.564 28.744 639.988 29.164C639.412 29.572 638.956 30.16 638.62 30.928C638.284 31.696 638.116 32.62 638.116 33.7C638.116 34.78 638.284 35.71 638.62 36.49C638.956 37.258 639.412 37.852 639.988 38.272C640.564 38.68 641.224 38.884 641.968 38.884ZM649.264 35.41V34.132H656.392V35.41H649.264ZM662.921 40.216C662.093 40.216 661.349 40.066 660.689 39.766C660.029 39.454 659.507 39.028 659.123 38.488C658.751 37.936 658.565 37.3 658.565 36.58C658.565 35.812 658.787 35.122 659.231 34.51C659.687 33.898 660.287 33.49 661.031 33.286C660.347 33.058 659.819 32.692 659.447 32.188C659.075 31.684 658.889 31.132 658.889 30.532C658.889 29.92 659.051 29.362 659.375 28.858C659.699 28.342 660.161 27.934 660.761 27.634C661.361 27.334 662.081 27.184 662.921 27.184C663.761 27.184 664.481 27.334 665.081 27.634C665.681 27.934 666.143 28.342 666.467 28.858C666.791 29.362 666.953 29.92 666.953 30.532C666.953 31.12 666.767 31.672 666.395 32.188C666.023 32.692 665.495 33.058 664.811 33.286C665.555 33.49 666.149 33.898 666.593 34.51C667.049 35.122 667.277 35.812 667.277 36.58C667.277 37.3 667.085 37.936 666.701 38.488C666.329 39.028 665.813 39.454 665.153 39.766C664.493 40.066 663.749 40.216 662.921 40.216ZM662.921 32.746C663.689 32.746 664.295 32.554 664.739 32.17C665.195 31.774 665.423 31.258 665.423 30.622C665.423 29.914 665.201 29.38 664.757 29.02C664.313 28.66 663.701 28.48 662.921 28.48C662.141 28.48 661.529 28.66 661.085 29.02C660.653 29.38 660.437 29.914 660.437 30.622C660.437 31.258 660.659 31.774 661.103 32.17C661.547 32.554 662.153 32.746 662.921 32.746ZM662.921 38.884C663.869 38.884 664.577 38.668 665.045 38.236C665.525 37.792 665.765 37.21 665.765 36.49C665.765 35.674 665.507 35.056 664.991 34.636C664.475 34.216 663.785 34.006 662.921 34.006C662.057 34.006 661.367 34.216 660.851 34.636C660.335 35.056 660.077 35.674 660.077 36.49C660.077 37.21 660.311 37.792 660.779 38.236C661.259 38.668 661.973 38.884 662.921 38.884ZM673.38 40.216C672.588 40.216 671.91 40.06 671.346 39.748C670.782 39.436 670.332 39.022 669.996 38.506C669.672 37.978 669.474 37.396 669.402 36.76H670.806C670.926 37.444 671.214 37.972 671.67 38.344C672.126 38.716 672.702 38.902 673.398 38.902C674.358 38.902 675.156 38.458 675.792 37.57C676.428 36.67 676.77 35.272 676.818 33.376C676.53 33.94 676.068 34.432 675.432 34.852C674.808 35.26 674.052 35.464 673.164 35.464C672.456 35.464 671.784 35.296 671.148 34.96C670.512 34.624 669.996 34.156 669.6 33.556C669.204 32.944 669.006 32.23 669.006 31.414C669.006 30.706 669.18 30.028 669.528 29.38C669.888 28.732 670.392 28.204 671.04 27.796C671.688 27.388 672.462 27.184 673.362 27.184C674.274 27.184 675.042 27.358 675.666 27.706C676.29 28.042 676.788 28.498 677.16 29.074C677.544 29.65 677.82 30.298 677.988 31.018C678.168 31.726 678.258 32.452 678.258 33.196C678.258 34.588 678.066 35.812 677.682 36.868C677.298 37.912 676.74 38.734 676.008 39.334C675.288 39.922 674.412 40.216 673.38 40.216ZM673.47 34.15C674.034 34.15 674.538 34.024 674.982 33.772C675.426 33.508 675.78 33.16 676.044 32.728C676.308 32.296 676.44 31.828 676.44 31.324C676.44 30.784 676.308 30.304 676.044 29.884C675.78 29.452 675.426 29.116 674.982 28.876C674.538 28.636 674.034 28.516 673.47 28.516C672.906 28.516 672.402 28.636 671.958 28.876C671.514 29.116 671.166 29.452 670.914 29.884C670.662 30.304 670.536 30.79 670.536 31.342C670.536 32.194 670.812 32.878 671.364 33.394C671.928 33.898 672.63 34.15 673.47 34.15ZM686.265 40V37.3H679.875V36.13L685.995 27.4H687.759V35.968H689.631V37.3H687.759V40H686.265ZM681.549 35.968H686.337V29.074L681.549 35.968ZM692.7 40V29.092L690.666 29.542V28.498L693.204 27.4H694.23V40H692.7ZM696.62 35.41V34.132H703.748V35.41H696.62ZM710.402 40.216C709.538 40.216 708.788 40.06 708.152 39.748C707.516 39.436 707.006 39.01 706.622 38.47C706.25 37.918 706.022 37.294 705.938 36.598H707.414C707.558 37.294 707.894 37.858 708.422 38.29C708.95 38.71 709.616 38.92 710.42 38.92C711.02 38.92 711.536 38.782 711.968 38.506C712.4 38.218 712.73 37.834 712.958 37.354C713.198 36.874 713.318 36.34 713.318 35.752C713.318 34.816 713.054 34.06 712.526 33.484C711.998 32.908 711.314 32.62 710.474 32.62C709.778 32.62 709.184 32.776 708.692 33.088C708.2 33.4 707.84 33.808 707.612 34.312H706.172L707.252 27.4H713.858V28.714H708.422L707.684 32.548C707.972 32.2 708.368 31.912 708.872 31.684C709.388 31.456 709.976 31.342 710.636 31.342C711.464 31.342 712.184 31.534 712.796 31.918C713.42 32.302 713.906 32.824 714.254 33.484C714.602 34.144 714.776 34.894 714.776 35.734C714.776 36.538 714.602 37.282 714.254 37.966C713.918 38.65 713.42 39.196 712.76 39.604C712.112 40.012 711.326 40.216 710.402 40.216ZM722.846 40V37.3H716.456V36.13L722.576 27.4H724.34V35.968H726.212V37.3H724.34V40H722.846ZM718.13 35.968H722.918V29.074L718.13 35.968ZM729.28 40V29.092L727.246 29.542V28.498L729.784 27.4H730.81V40H729.28ZM737.754 40.216C736.89 40.216 736.14 40.06 735.504 39.748C734.868 39.436 734.358 39.01 733.974 38.47C733.602 37.918 733.374 37.294 733.29 36.598H734.766C734.91 37.294 735.246 37.858 735.774 38.29C736.302 38.71 736.968 38.92 737.772 38.92C738.372 38.92 738.888 38.782 739.32 38.506C739.752 38.218 740.082 37.834 740.31 37.354C740.55 36.874 740.67 36.34 740.67 35.752C740.67 34.816 740.406 34.06 739.878 33.484C739.35 32.908 738.666 32.62 737.826 32.62C737.13 32.62 736.536 32.776 736.044 33.088C735.552 33.4 735.192 33.808 734.964 34.312H733.524L734.604 27.4H741.21V28.714H735.774L735.036 32.548C735.324 32.2 735.72 31.912 736.224 31.684C736.74 31.456 737.328 31.342 737.988 31.342C738.816 31.342 739.536 31.534 740.148 31.918C740.772 32.302 741.258 32.824 741.606 33.484C741.954 34.144 742.128 34.894 742.128 35.734C742.128 36.538 741.954 37.282 741.606 37.966C741.27 38.65 740.772 39.196 740.112 39.604C739.464 40.012 738.678 40.216 737.754 40.216Z" fill="#42446E"/>
<path d="M831.614 41.96L833.828 37.136H833.306L829.76 29.072H831.398L834.35 36.02L837.482 29.072H839.048L833.198 41.96H831.614ZM843.051 38.216C842.307 38.216 841.689 38.09 841.197 37.838C840.705 37.586 840.339 37.25 840.099 36.83C839.859 36.41 839.739 35.954 839.739 35.462C839.739 34.55 840.087 33.848 840.783 33.356C841.479 32.864 842.427 32.618 843.627 32.618H846.039V32.51C846.039 31.73 845.835 31.142 845.427 30.746C845.019 30.338 844.473 30.134 843.789 30.134C843.201 30.134 842.691 30.284 842.259 30.584C841.839 30.872 841.575 31.298 841.467 31.862H839.919C839.979 31.214 840.195 30.668 840.567 30.224C840.951 29.78 841.425 29.444 841.989 29.216C842.553 28.976 843.153 28.856 843.789 28.856C845.037 28.856 845.973 29.192 846.597 29.864C847.233 30.524 847.551 31.406 847.551 32.51V38H846.201L846.111 36.398C845.859 36.902 845.487 37.334 844.995 37.694C844.515 38.042 843.867 38.216 843.051 38.216ZM843.285 36.938C843.861 36.938 844.353 36.788 844.761 36.488C845.181 36.188 845.499 35.798 845.715 35.318C845.931 34.838 846.039 34.334 846.039 33.806V33.788H843.753C842.865 33.788 842.235 33.944 841.863 34.256C841.503 34.556 841.323 34.934 841.323 35.39C841.323 35.858 841.491 36.236 841.827 36.524C842.175 36.8 842.661 36.938 843.285 36.938ZM849.82 38V29.072H851.188L851.278 30.674C851.566 30.11 851.98 29.666 852.52 29.342C853.06 29.018 853.672 28.856 854.356 28.856C855.412 28.856 856.252 29.18 856.876 29.828C857.512 30.464 857.83 31.448 857.83 32.78V38H856.318V32.942C856.318 31.082 855.55 30.152 854.014 30.152C853.246 30.152 852.604 30.434 852.088 30.998C851.584 31.55 851.332 32.342 851.332 33.374V38H849.82ZM863.649 35.192C863.145 35.192 862.683 35.126 862.263 34.994L861.363 35.84C861.495 35.936 861.657 36.02 861.849 36.092C862.053 36.152 862.341 36.212 862.713 36.272C863.085 36.32 863.607 36.374 864.279 36.434C865.479 36.518 866.337 36.794 866.853 37.262C867.369 37.73 867.627 38.342 867.627 39.098C867.627 39.614 867.483 40.106 867.195 40.574C866.919 41.042 866.487 41.426 865.899 41.726C865.323 42.026 864.579 42.176 863.667 42.176C862.863 42.176 862.149 42.068 861.525 41.852C860.901 41.648 860.415 41.33 860.067 40.898C859.719 40.478 859.545 39.944 859.545 39.296C859.545 38.96 859.635 38.594 859.815 38.198C859.995 37.814 860.331 37.448 860.823 37.1C860.559 36.992 860.331 36.878 860.139 36.758C859.959 36.626 859.791 36.482 859.635 36.326V35.912L861.165 34.4C860.457 33.8 860.103 33.008 860.103 32.024C860.103 31.436 860.241 30.902 860.517 30.422C860.793 29.942 861.195 29.564 861.723 29.288C862.251 29 862.893 28.856 863.649 28.856C864.165 28.856 864.633 28.928 865.053 29.072H868.347V30.206L866.673 30.278C867.021 30.782 867.195 31.364 867.195 32.024C867.195 32.612 867.051 33.146 866.763 33.626C866.487 34.106 866.085 34.49 865.557 34.778C865.041 35.054 864.405 35.192 863.649 35.192ZM863.649 33.95C864.285 33.95 864.789 33.788 865.161 33.464C865.545 33.128 865.737 32.648 865.737 32.024C865.737 31.412 865.545 30.944 865.161 30.62C864.789 30.284 864.285 30.116 863.649 30.116C863.001 30.116 862.485 30.284 862.101 30.62C861.729 30.944 861.543 31.412 861.543 32.024C861.543 32.648 861.729 33.128 862.101 33.464C862.485 33.788 863.001 33.95 863.649 33.95ZM861.021 39.152C861.021 39.752 861.273 40.196 861.777 40.484C862.281 40.784 862.911 40.934 863.667 40.934C864.411 40.934 865.005 40.772 865.449 40.448C865.905 40.124 866.133 39.692 866.133 39.152C866.133 38.768 865.977 38.432 865.665 38.144C865.353 37.868 864.777 37.706 863.937 37.658C863.277 37.61 862.707 37.55 862.227 37.478C861.735 37.742 861.411 38.024 861.255 38.324C861.099 38.636 861.021 38.912 861.021 39.152ZM871.394 27.092C871.106 27.092 870.86 26.996 870.656 26.804C870.452 26.6 870.35 26.348 870.35 26.048C870.35 25.76 870.452 25.52 870.656 25.328C870.86 25.136 871.106 25.04 871.394 25.04C871.682 25.04 871.922 25.136 872.114 25.328C872.318 25.52 872.42 25.76 872.42 26.048C872.42 26.348 872.318 26.6 872.114 26.804C871.922 26.996 871.682 27.092 871.394 27.092ZM868.658 41.96V40.664H869.36C869.804 40.664 870.122 40.568 870.314 40.376C870.518 40.196 870.62 39.884 870.62 39.44V29.072H872.132V39.476C872.132 40.34 871.916 40.97 871.484 41.366C871.052 41.762 870.422 41.96 869.594 41.96H868.658ZM875.681 27.092C875.381 27.092 875.129 26.996 874.925 26.804C874.733 26.6 874.637 26.348 874.637 26.048C874.637 25.76 874.733 25.52 874.925 25.328C875.129 25.136 875.381 25.04 875.681 25.04C875.969 25.04 876.215 25.136 876.419 25.328C876.623 25.52 876.725 25.76 876.725 26.048C876.725 26.348 876.623 26.6 876.419 26.804C876.215 26.996 875.969 27.092 875.681 27.092ZM874.925 38V29.072H876.437V38H874.925ZM879.07 38V29.072H880.438L880.528 30.674C880.816 30.11 881.23 29.666 881.77 29.342C882.31 29.018 882.922 28.856 883.606 28.856C884.662 28.856 885.502 29.18 886.126 29.828C886.762 30.464 887.08 31.448 887.08 32.78V38H885.568V32.942C885.568 31.082 884.8 30.152 883.264 30.152C882.496 30.152 881.854 30.434 881.338 30.998C880.834 31.55 880.582 32.342 880.582 33.374V38H879.07ZM889.371 38V25.04H890.883V30.602C891.183 30.05 891.609 29.624 892.161 29.324C892.713 29.012 893.313 28.856 893.961 28.856C894.993 28.856 895.821 29.18 896.445 29.828C897.069 30.464 897.381 31.448 897.381 32.78V38H895.887V32.942C895.887 31.082 895.137 30.152 893.637 30.152C892.857 30.152 892.203 30.434 891.675 30.998C891.147 31.55 890.883 32.342 890.883 33.374V38H889.371ZM902.929 38.216C901.873 38.216 901.033 37.898 900.409 37.262C899.785 36.614 899.473 35.624 899.473 34.292V29.072H900.985V34.13C900.985 35.99 901.747 36.92 903.271 36.92C904.051 36.92 904.693 36.644 905.197 36.092C905.713 35.528 905.971 34.73 905.971 33.698V29.072H907.483V38H906.115L906.007 36.398C905.731 36.962 905.317 37.406 904.765 37.73C904.225 38.054 903.613 38.216 902.929 38.216ZM914.076 38.216C913.224 38.216 912.456 38.024 911.772 37.64C911.1 37.244 910.566 36.698 910.17 36.002C909.786 35.294 909.594 34.472 909.594 33.536C909.594 32.6 909.786 31.784 910.17 31.088C910.566 30.38 911.1 29.834 911.772 29.45C912.456 29.054 913.224 28.856 914.076 28.856C915.132 28.856 916.02 29.132 916.74 29.684C917.472 30.236 917.934 30.974 918.126 31.898H916.578C916.458 31.346 916.164 30.92 915.696 30.62C915.228 30.308 914.682 30.152 914.058 30.152C913.554 30.152 913.08 30.278 912.636 30.53C912.192 30.782 911.832 31.16 911.556 31.664C911.28 32.168 911.142 32.792 911.142 33.536C911.142 34.28 911.28 34.904 911.556 35.408C911.832 35.912 912.192 36.296 912.636 36.56C913.08 36.812 913.554 36.938 914.058 36.938C914.682 36.938 915.228 36.788 915.696 36.488C916.164 36.176 916.458 35.738 916.578 35.174H918.126C917.946 36.074 917.49 36.806 916.758 37.37C916.026 37.934 915.132 38.216 914.076 38.216ZM920.238 38V25.04H921.75V32.834L925.404 29.072H927.258L923.298 33.104L927.762 38H925.836L921.75 33.374V38H920.238ZM930.442 38L935.446 26.696H928.534V25.4H936.994V26.534L932.044 38H930.442ZM940.04 38L945.044 26.696H938.132V25.4H946.592V26.534L941.642 38H940.04ZM953.192 41.582C951.908 41.582 950.78 41.336 949.808 40.844C948.848 40.352 948.098 39.656 947.558 38.756C947.03 37.856 946.766 36.788 946.766 35.552C946.766 34.28 946.988 33.092 947.432 31.988C947.876 30.884 948.5 29.918 949.304 29.09C950.108 28.262 951.056 27.62 952.148 27.164C953.24 26.708 954.44 26.48 955.748 26.48C957.08 26.48 958.238 26.738 959.222 27.254C960.206 27.758 960.962 28.466 961.49 29.378C962.03 30.278 962.3 31.328 962.3 32.528C962.3 33.212 962.216 33.89 962.048 34.562C961.88 35.222 961.628 35.822 961.292 36.362C960.968 36.89 960.566 37.316 960.086 37.64C959.618 37.952 959.078 38.108 958.466 38.108C957.854 38.108 957.386 37.952 957.062 37.64C956.75 37.328 956.576 36.908 956.54 36.38C956.168 36.92 955.694 37.346 955.118 37.658C954.554 37.958 953.954 38.108 953.318 38.108C952.406 38.108 951.692 37.832 951.176 37.28C950.672 36.728 950.42 35.984 950.42 35.048C950.42 34.388 950.522 33.758 950.726 33.158C950.942 32.546 951.242 32.006 951.626 31.538C952.01 31.058 952.466 30.68 952.994 30.404C953.522 30.128 954.11 29.99 954.758 29.99C955.97 29.99 956.756 30.488 957.116 31.484L957.35 30.188H958.628L957.728 35.336C957.644 35.852 957.668 36.272 957.8 36.596C957.944 36.908 958.238 37.064 958.682 37.064C959.066 37.064 959.408 36.932 959.708 36.668C960.008 36.392 960.26 36.032 960.464 35.588C960.668 35.132 960.818 34.646 960.914 34.13C961.022 33.602 961.076 33.092 961.076 32.6C961.076 31.028 960.584 29.792 959.6 28.892C958.628 27.992 957.284 27.542 955.568 27.542C954.476 27.542 953.468 27.746 952.544 28.154C951.632 28.562 950.834 29.126 950.15 29.846C949.466 30.566 948.932 31.4 948.548 32.348C948.176 33.296 947.99 34.322 947.99 35.426C947.99 36.506 948.212 37.424 948.656 38.18C949.1 38.936 949.73 39.512 950.546 39.908C951.362 40.304 952.334 40.502 953.462 40.502C953.978 40.502 954.494 40.448 955.01 40.34C955.526 40.244 956.006 40.094 956.45 39.89L956.702 40.916C955.622 41.36 954.452 41.582 953.192 41.582ZM953.768 36.956C954.284 36.956 954.758 36.818 955.19 36.542C955.622 36.266 955.976 35.888 956.252 35.408C956.528 34.916 956.696 34.352 956.756 33.716C956.84 33.008 956.714 32.402 956.378 31.898C956.054 31.394 955.526 31.142 954.794 31.142C954.182 31.142 953.648 31.322 953.192 31.682C952.748 32.03 952.406 32.486 952.166 33.05C951.926 33.614 951.806 34.202 951.806 34.814C951.806 35.462 951.968 35.984 952.292 36.38C952.628 36.764 953.12 36.956 953.768 36.956ZM968.414 35.192C967.91 35.192 967.448 35.126 967.028 34.994L966.128 35.84C966.26 35.936 966.422 36.02 966.614 36.092C966.818 36.152 967.106 36.212 967.478 36.272C967.85 36.32 968.372 36.374 969.044 36.434C970.244 36.518 971.102 36.794 971.618 37.262C972.134 37.73 972.392 38.342 972.392 39.098C972.392 39.614 972.248 40.106 971.96 40.574C971.684 41.042 971.252 41.426 970.664 41.726C970.088 42.026 969.344 42.176 968.432 42.176C967.628 42.176 966.914 42.068 966.29 41.852C965.666 41.648 965.18 41.33 964.832 40.898C964.484 40.478 964.31 39.944 964.31 39.296C964.31 38.96 964.4 38.594 964.58 38.198C964.76 37.814 965.096 37.448 965.588 37.1C965.324 36.992 965.096 36.878 964.904 36.758C964.724 36.626 964.556 36.482 964.4 36.326V35.912L965.93 34.4C965.222 33.8 964.868 33.008 964.868 32.024C964.868 31.436 965.006 30.902 965.282 30.422C965.558 29.942 965.96 29.564 966.488 29.288C967.016 29 967.658 28.856 968.414 28.856C968.93 28.856 969.398 28.928 969.818 29.072H973.112V30.206L971.438 30.278C971.786 30.782 971.96 31.364 971.96 32.024C971.96 32.612 971.816 33.146 971.528 33.626C971.252 34.106 970.85 34.49 970.322 34.778C969.806 35.054 969.17 35.192 968.414 35.192ZM968.414 33.95C969.05 33.95 969.554 33.788 969.926 33.464C970.31 33.128 970.502 32.648 970.502 32.024C970.502 31.412 970.31 30.944 969.926 30.62C969.554 30.284 969.05 30.116 968.414 30.116C967.766 30.116 967.25 30.284 966.866 30.62C966.494 30.944 966.308 31.412 966.308 32.024C966.308 32.648 966.494 33.128 966.866 33.464C967.25 33.788 967.766 33.95 968.414 33.95ZM965.786 39.152C965.786 39.752 966.038 40.196 966.542 40.484C967.046 40.784 967.676 40.934 968.432 40.934C969.176 40.934 969.77 40.772 970.214 40.448C970.67 40.124 970.898 39.692 970.898 39.152C970.898 38.768 970.742 38.432 970.43 38.144C970.118 37.868 969.542 37.706 968.702 37.658C968.042 37.61 967.472 37.55 966.992 37.478C966.5 37.742 966.176 38.024 966.02 38.324C965.864 38.636 965.786 38.912 965.786 39.152ZM974.818 38V29.072H976.186L976.294 30.368C976.582 29.888 976.966 29.516 977.446 29.252C977.926 28.988 978.466 28.856 979.066 28.856C979.774 28.856 980.38 29 980.884 29.288C981.4 29.576 981.796 30.014 982.072 30.602C982.384 30.062 982.81 29.636 983.35 29.324C983.902 29.012 984.496 28.856 985.132 28.856C986.2 28.856 987.052 29.18 987.688 29.828C988.324 30.464 988.642 31.448 988.642 32.78V38H987.148V32.942C987.148 32.018 986.962 31.322 986.59 30.854C986.218 30.386 985.684 30.152 984.988 30.152C984.268 30.152 983.668 30.434 983.188 30.998C982.72 31.55 982.486 32.342 982.486 33.374V38H980.974V32.942C980.974 32.018 980.788 31.322 980.416 30.854C980.044 30.386 979.51 30.152 978.814 30.152C978.106 30.152 977.512 30.434 977.032 30.998C976.564 31.55 976.33 32.342 976.33 33.374V38H974.818ZM993.889 38.216C993.145 38.216 992.527 38.09 992.035 37.838C991.543 37.586 991.177 37.25 990.937 36.83C990.697 36.41 990.577 35.954 990.577 35.462C990.577 34.55 990.925 33.848 991.621 33.356C992.317 32.864 993.265 32.618 994.465 32.618H996.877V32.51C996.877 31.73 996.673 31.142 996.265 30.746C995.857 30.338 995.311 30.134 994.627 30.134C994.039 30.134 993.529 30.284 993.097 30.584C992.677 30.872 992.413 31.298 992.305 31.862H990.757C990.817 31.214 991.033 30.668 991.405 30.224C991.789 29.78 992.263 29.444 992.827 29.216C993.391 28.976 993.991 28.856 994.627 28.856C995.875 28.856 996.811 29.192 997.435 29.864C998.071 30.524 998.389 31.406 998.389 32.51V38H997.039L996.949 36.398C996.697 36.902 996.325 37.334 995.833 37.694C995.353 38.042 994.705 38.216 993.889 38.216ZM994.123 36.938C994.699 36.938 995.191 36.788 995.599 36.488C996.019 36.188 996.337 35.798 996.553 35.318C996.769 34.838 996.877 34.334 996.877 33.806V33.788H994.591C993.703 33.788 993.073 33.944 992.701 34.256C992.341 34.556 992.161 34.934 992.161 35.39C992.161 35.858 992.329 36.236 992.665 36.524C993.013 36.8 993.499 36.938 994.123 36.938ZM1001.58 27.092C1001.28 27.092 1001.02 26.996 1000.82 26.804C1000.63 26.6 1000.53 26.348 1000.53 26.048C1000.53 25.76 1000.63 25.52 1000.82 25.328C1001.02 25.136 1001.28 25.04 1001.58 25.04C1001.86 25.04 1002.11 25.136 1002.31 25.328C1002.52 25.52 1002.62 25.76 1002.62 26.048C1002.62 26.348 1002.52 26.6 1002.31 26.804C1002.11 26.996 1001.86 27.092 1001.58 27.092ZM1000.82 38V29.072H1002.33V38H1000.82ZM1004.96 38V25.04H1006.48V38H1004.96ZM1009.48 38.09C1009.18 38.09 1008.92 37.994 1008.72 37.802C1008.53 37.598 1008.43 37.352 1008.43 37.064C1008.43 36.776 1008.53 36.536 1008.72 36.344C1008.92 36.14 1009.18 36.038 1009.48 36.038C1009.76 36.038 1010 36.14 1010.2 36.344C1010.4 36.536 1010.5 36.776 1010.5 37.064C1010.5 37.352 1010.4 37.598 1010.2 37.802C1010 37.994 1009.76 38.09 1009.48 38.09ZM1016.57 38.216C1015.72 38.216 1014.95 38.024 1014.27 37.64C1013.6 37.244 1013.06 36.698 1012.67 36.002C1012.28 35.294 1012.09 34.472 1012.09 33.536C1012.09 32.6 1012.28 31.784 1012.67 31.088C1013.06 30.38 1013.6 29.834 1014.27 29.45C1014.95 29.054 1015.72 28.856 1016.57 28.856C1017.63 28.856 1018.52 29.132 1019.24 29.684C1019.97 30.236 1020.43 30.974 1020.62 31.898H1019.08C1018.96 31.346 1018.66 30.92 1018.19 30.62C1017.73 30.308 1017.18 30.152 1016.56 30.152C1016.05 30.152 1015.58 30.278 1015.13 30.53C1014.69 30.782 1014.33 31.16 1014.05 31.664C1013.78 32.168 1013.64 32.792 1013.64 33.536C1013.64 34.28 1013.78 34.904 1014.05 35.408C1014.33 35.912 1014.69 36.296 1015.13 36.56C1015.58 36.812 1016.05 36.938 1016.56 36.938C1017.18 36.938 1017.73 36.788 1018.19 36.488C1018.66 36.176 1018.96 35.738 1019.08 35.174H1020.62C1020.44 36.074 1019.99 36.806 1019.26 37.37C1018.52 37.934 1017.63 38.216 1016.57 38.216ZM1026.8 38.216C1025.96 38.216 1025.21 38.024 1024.54 37.64C1023.86 37.256 1023.33 36.716 1022.93 36.02C1022.55 35.312 1022.36 34.484 1022.36 33.536C1022.36 32.588 1022.56 31.766 1022.95 31.07C1023.35 30.362 1023.88 29.816 1024.55 29.432C1025.24 29.048 1026 28.856 1026.84 28.856C1027.68 28.856 1028.44 29.048 1029.11 29.432C1029.78 29.816 1030.31 30.362 1030.69 31.07C1031.09 31.766 1031.29 32.588 1031.29 33.536C1031.29 34.484 1031.09 35.312 1030.69 36.02C1030.3 36.716 1029.76 37.256 1029.07 37.64C1028.4 38.024 1027.64 38.216 1026.8 38.216ZM1026.8 36.92C1027.32 36.92 1027.8 36.794 1028.24 36.542C1028.69 36.29 1029.05 35.912 1029.32 35.408C1029.6 34.904 1029.74 34.28 1029.74 33.536C1029.74 32.792 1029.6 32.168 1029.32 31.664C1029.06 31.16 1028.71 30.782 1028.26 30.53C1027.82 30.278 1027.34 30.152 1026.84 30.152C1026.32 30.152 1025.84 30.278 1025.4 30.53C1024.96 30.782 1024.6 31.16 1024.32 31.664C1024.04 32.168 1023.91 32.792 1023.91 33.536C1023.91 34.28 1024.04 34.904 1024.32 35.408C1024.6 35.912 1024.95 36.29 1025.38 36.542C1025.83 36.794 1026.3 36.92 1026.8 36.92ZM1033.39 38V29.072H1034.76L1034.86 30.368C1035.15 29.888 1035.54 29.516 1036.02 29.252C1036.5 28.988 1037.04 28.856 1037.64 28.856C1038.34 28.856 1038.95 29 1039.45 29.288C1039.97 29.576 1040.37 30.014 1040.64 30.602C1040.95 30.062 1041.38 29.636 1041.92 29.324C1042.47 29.012 1043.07 28.856 1043.7 28.856C1044.77 28.856 1045.62 29.18 1046.26 29.828C1046.89 30.464 1047.21 31.448 1047.21 32.78V38H1045.72V32.942C1045.72 32.018 1045.53 31.322 1045.16 30.854C1044.79 30.386 1044.25 30.152 1043.56 30.152C1042.84 30.152 1042.24 30.434 1041.76 30.998C1041.29 31.55 1041.06 32.342 1041.06 33.374V38H1039.54V32.942C1039.54 32.018 1039.36 31.322 1038.99 30.854C1038.61 30.386 1038.08 30.152 1037.38 30.152C1036.68 30.152 1036.08 30.434 1035.6 30.998C1035.13 31.55 1034.9 32.342 1034.9 33.374V38H1033.39Z" fill="#42446E"/>
</g>
<defs>
<filter id="filter0_d_6_253" x="0" y="0" width="1232.75" height="196.176" filterUnits="userSpaceOnUse" color-interpolation-filters="sRGB">
<feFlood flood-opacity="0" result="BackgroundImageFix"/>
<feColorMatrix in="SourceAlpha" type="matrix" values="0 0 0 0 0 0 0 0 0 0 0 0 0 0 0 0 0 0 127 0" result="hardAlpha"/>
<feOffset dy="4"/>
<feGaussianBlur stdDeviation="2"/>
<feComposite in2="hardAlpha" operator="out"/>
<feColorMatrix type="matrix" values="0 0 0 0 0 0 0 0 0 0 0 0 0 0 0 0 0 0 0.25 0"/>
<feBlend mode="normal" in2="BackgroundImageFix" result="effect1_dropShadow_6_253"/>
<feBlend mode="normal" in="SourceGraphic" in2="effect1_dropShadow_6_253" result="shape"/>
</filter>
<clipPath id="clip0_6_253">
<rect width="97" height="59" fill="white" transform="translate(4)"/>
</clipPath>
<clipPath id="clip1_6_253">
<rect width="30" height="30" fill="white" transform="translate(1185 20)"/>
</clipPath>
</defs>
</svg>
