<svg width="1193" height="59" viewBox="0 0 1193 59" fill="none" xmlns="http://www.w3.org/2000/svg">
<g clip-path="url(#clip0_1_19)">
<path d="M12.5581 0V3.83066C11.5028 3.83066 10.6796 3.98157 10.0882 4.28338C9.49679 4.57357 9.24169 5.15977 9.32287 6.04199L9.86206 11.1785C10.0012 12.4786 9.85626 13.5292 9.42722 14.3301C9.00978 15.131 8.36623 15.7464 7.49655 16.1758C6.63848 16.5937 5.62386 16.8897 4.45271 17.0638C5.69343 17.2495 6.74284 17.5514 7.60092 17.9693C8.45899 18.3871 9.08516 18.9907 9.47941 19.7801C9.87365 20.5695 10.0012 21.6258 9.86206 22.9492L9.32287 28.0857C9.24169 28.9679 9.49679 29.5541 10.0882 29.8443C10.6796 30.146 11.5028 30.297 12.5581 30.297V34.1277C9.35765 34.1277 7.1081 33.6401 5.80939 32.6651C4.52229 31.7016 4.00048 30.0475 4.24398 27.7026L4.76579 22.7227C4.85856 21.8406 4.70782 21.1499 4.31357 20.6507C3.93091 20.1516 3.36272 19.8033 2.60901 19.6059C1.85529 19.3971 0.985626 19.2926 0 19.2926V14.8351C0.97403 14.8351 1.8379 14.7364 2.59162 14.5391C3.34533 14.3301 3.91932 13.9761 4.31357 13.477C4.70782 12.9778 4.85856 12.2871 4.76579 11.4049L4.24398 6.45987C3.98889 4.06862 4.51068 2.39706 5.80939 1.4452C7.1081 0.481734 9.35765 0 12.5581 0Z" fill="url(#paint0_linear_1_19)"/>
<path d="M27.633 4.50977C30.5087 4.50977 32.6771 5.62414 34.1381 7.85288C35.6108 10.07 36.3471 13.1636 36.3471 17.1335C36.3471 21.115 35.6108 24.2318 34.1381 26.4838C32.6771 28.7242 30.5087 29.8443 27.633 29.8443C24.7342 29.8443 22.5541 28.7242 21.0931 26.4838C19.6436 24.2318 18.9189 21.115 18.9189 17.1335C18.9189 13.1636 19.6436 10.07 21.0931 7.85288C22.5541 5.62414 24.7342 4.50977 27.633 4.50977ZM27.633 8.49713C26.4039 8.49713 25.5052 9.15879 24.937 10.4821C24.3689 11.7938 24.0847 14.0109 24.0847 17.1335C24.0847 18.1551 24.1022 19.0663 24.1369 19.8672C24.1718 20.6566 24.224 21.3589 24.2935 21.9741L30.1724 9.66374C29.8942 9.22264 29.5463 8.92083 29.1289 8.75831C28.7231 8.5842 28.2244 8.49713 27.633 8.49713ZM31.1465 17.1335C31.1465 15.7986 31.1175 14.6726 31.0595 13.7555L25.511 25.2302C25.7662 25.4739 26.0676 25.6422 26.4154 25.7351C26.775 25.8279 27.1808 25.8744 27.633 25.8744C28.4564 25.8744 29.1231 25.5958 29.6333 25.0387C30.1551 24.4815 30.5377 23.5644 30.7812 22.2875C31.0248 20.999 31.1465 19.281 31.1465 17.1335Z" fill="url(#paint1_linear_1_19)"/>
<path d="M48.5 4.50977C51.3757 4.50977 53.5441 5.62414 55.0051 7.85288C56.4778 10.07 57.214 13.1636 57.214 17.1335C57.214 21.115 56.4778 24.2318 55.0051 26.4838C53.5441 28.7242 51.3757 29.8443 48.5 29.8443C45.601 29.8443 43.4211 28.7242 41.9601 26.4838C40.5106 24.2318 39.7859 21.115 39.7859 17.1335C39.7859 13.1636 40.5106 10.07 41.9601 7.85288C43.4211 5.62414 45.601 4.50977 48.5 4.50977ZM48.5 8.49713C47.2709 8.49713 46.3722 9.15879 45.804 10.4821C45.2359 11.7938 44.9518 14.0109 44.9518 17.1335C44.9518 18.1551 44.9692 19.0663 45.0039 19.8672C45.0387 20.6566 45.0909 21.3589 45.1605 21.9741L51.0394 9.66374C50.7611 9.22264 50.4132 8.92083 49.9959 8.75831C49.5899 8.5842 49.0913 8.49713 48.5 8.49713ZM52.0135 17.1335C52.0135 15.7986 51.9845 14.6726 51.9265 13.7555L46.378 25.2302C46.633 25.4739 46.9346 25.6422 47.2825 25.7351C47.642 25.8279 48.0478 25.8744 48.5 25.8744C49.3233 25.8744 49.99 25.5958 50.5003 25.0387C51.022 24.4815 51.4047 23.5644 51.6482 22.2875C51.8917 20.999 52.0135 19.281 52.0135 17.1335Z" fill="url(#paint2_linear_1_19)"/>
<path d="M68.1146 29.8095L62.8966 28.1902L71.889 9.26321H61.2964V5.11914H77.4549V8.84532L68.1146 29.8095Z" fill="url(#paint3_linear_1_19)"/>
<path d="M84.442 0C87.6423 0 89.8861 0.481734 91.1733 1.4452C92.472 2.40867 92.9996 4.06862 92.7561 6.42505L92.2342 11.4049C92.1414 12.2871 92.2922 12.9778 92.6865 13.477C93.0807 13.9761 93.6488 14.3301 94.391 14.5391C95.1447 14.7364 96.0144 14.8351 97 14.8351V19.2926C96.026 19.2926 95.1622 19.3971 94.4084 19.6059C93.6547 19.8033 93.0807 20.1516 92.6865 20.6507C92.2922 21.1499 92.1414 21.8406 92.2342 22.7227L92.7561 27.6678C93.0228 30.0475 92.5009 31.719 91.1906 32.6824C89.8919 33.646 87.6423 34.1277 84.442 34.1277V30.297C85.5088 30.297 86.3379 30.146 86.9292 29.8443C87.5207 29.5541 87.7699 28.9679 87.6772 28.0857L87.1379 22.9492C86.9988 21.6374 87.1379 20.5868 87.5554 19.7976C87.9844 18.9965 88.6338 18.3871 89.5035 17.9693C90.3731 17.5397 91.3935 17.238 92.5647 17.0638C91.3239 16.8781 90.2688 16.5763 89.3991 16.1584C88.541 15.7405 87.9149 15.1369 87.5207 14.3476C87.1264 13.5466 86.9988 12.4903 87.1379 11.1785L87.6772 6.04199C87.7699 5.15977 87.5148 4.57357 86.9119 4.28338C86.3204 3.98157 85.4972 3.83066 84.442 3.83066V0Z" fill="url(#paint4_linear_1_19)"/>
<path d="M12.2745 42.162C13.2416 42.162 14.0208 42.4023 14.6121 42.8829C15.2036 43.3634 15.6349 44.0425 15.9063 44.9201C16.1845 45.7976 16.3238 46.8388 16.3238 48.0438C16.3238 49.1861 16.1568 50.2064 15.8228 51.1048C15.4888 51.9963 15.0053 52.6998 14.3722 53.2151C13.739 53.7237 12.9703 53.9778 12.0658 53.9778C10.9874 53.9778 10.1108 53.5913 9.43591 52.8181V57.906L6.13812 58.2508V42.5277H9.06022L9.20633 43.7708C9.65856 43.1928 10.1525 42.7819 10.6882 42.5381C11.224 42.2874 11.7527 42.162 12.2745 42.162ZM11.2518 44.5962C10.8691 44.5962 10.5317 44.7112 10.2395 44.941C9.94729 45.1707 9.67942 45.4842 9.43591 45.8812V50.5616C9.66551 50.9028 9.90554 51.1536 10.156 51.3137C10.4134 51.4739 10.7161 51.554 11.0639 51.554C11.6484 51.554 12.1041 51.2894 12.4311 50.76C12.7581 50.2237 12.9215 49.3323 12.9215 48.0856C12.9215 47.1662 12.8555 46.4558 12.7232 45.9543C12.5911 45.446 12.3998 45.0942 12.1493 44.8992C11.8988 44.6971 11.5997 44.5962 11.2518 44.5962Z" fill="url(#paint5_linear_1_19)"/>
<path d="M27.9882 50.4258C27.9882 50.8436 28.0438 51.1466 28.1552 51.3346C28.2734 51.5227 28.4613 51.6655 28.7186 51.763L28.0404 53.9361C27.3863 53.8734 26.8333 53.7305 26.3809 53.5077C25.9357 53.2778 25.5844 52.9331 25.3269 52.4735C24.9026 52.9818 24.3599 53.3614 23.6989 53.6122C23.038 53.8559 22.3632 53.9778 21.6743 53.9778C20.5333 53.9778 19.6219 53.654 18.94 53.0062C18.2652 52.3515 17.9278 51.5123 17.9278 50.4885C17.9278 49.2835 18.3974 48.3537 19.3366 47.699C20.2828 47.0444 21.6117 46.717 23.3232 46.717H24.8155V46.2991C24.8155 45.1639 24.0851 44.5962 22.6239 44.5962C22.2692 44.5962 21.8134 44.6485 21.2569 44.7529C20.7003 44.8504 20.1437 44.9931 19.5871 45.1812L18.8252 42.9874C19.5419 42.7157 20.2864 42.5102 21.0586 42.3709C21.8378 42.2317 22.5336 42.162 23.1458 42.162C24.7947 42.162 26.0122 42.4998 26.7984 43.1753C27.5916 43.844 27.9882 44.8121 27.9882 46.0797V50.4258ZM22.8118 51.6167C23.1667 51.6167 23.5389 51.5123 23.9285 51.3033C24.3181 51.0875 24.6138 50.7845 24.8155 50.3945V48.5975H24.0016C23.0832 48.5975 22.4083 48.7402 21.977 49.0258C21.5456 49.3044 21.3299 49.7153 21.3299 50.2586C21.3299 50.6834 21.4586 51.0178 21.7161 51.2615C21.9804 51.4984 22.3457 51.6167 22.8118 51.6167Z" fill="url(#paint6_linear_1_19)"/>
<path d="M41.6355 42.5277L37.9411 53.6227H34.0589L30.3227 42.5277H33.8815L36.0418 51.0944L38.2958 42.5277H41.6355Z" fill="url(#paint7_linear_1_19)"/>
<path d="M53.0286 50.4258C53.0286 50.8436 53.0842 51.1466 53.1956 51.3346C53.3138 51.5227 53.5017 51.6655 53.759 51.763L53.0808 53.9361C52.4267 53.8734 51.8737 53.7305 51.4214 53.5077C50.9761 53.2778 50.6248 52.9331 50.3673 52.4735C49.943 52.9818 49.4003 53.3614 48.7393 53.6122C48.0784 53.8559 47.4036 53.9778 46.7147 53.9778C45.5737 53.9778 44.6623 53.654 43.9804 53.0062C43.3056 52.3515 42.9682 51.5123 42.9682 50.4885C42.9682 49.2835 43.4379 48.3537 44.377 47.699C45.3232 47.0444 46.6521 46.717 48.3636 46.717H49.8559V46.2991C49.8559 45.1639 49.1255 44.5962 47.6645 44.5962C47.3096 44.5962 46.8538 44.6485 46.2973 44.7529C45.7407 44.8504 45.1841 44.9931 44.6275 45.1812L43.8658 42.9874C44.5823 42.7157 45.3268 42.5102 46.099 42.3709C46.8783 42.2317 47.574 42.162 48.1862 42.162C49.8351 42.162 51.0526 42.4998 51.8388 43.1753C52.632 43.844 53.0286 44.8121 53.0286 46.0797V50.4258ZM47.8522 51.6167C48.2071 51.6167 48.5793 51.5123 48.9689 51.3033C49.3585 51.0875 49.6542 50.7845 49.8559 50.3945V48.5975H49.042C48.1236 48.5975 47.4487 48.7402 47.0174 49.0258C46.5861 49.3044 46.3703 49.7153 46.3703 50.2586C46.3703 50.6834 46.4991 51.0178 46.7565 51.2615C47.0208 51.4984 47.3861 51.6167 47.8522 51.6167Z" fill="url(#paint8_linear_1_19)"/>
<path d="M56.2189 53.6226V42.5277H59.0993L59.3289 43.8126C59.8229 43.2555 60.3446 42.8411 60.8943 42.5695C61.4439 42.2978 62.0701 42.162 62.7728 42.162C63.7189 42.162 64.4634 42.451 65.0061 43.0292C65.5487 43.6072 65.82 44.4221 65.82 45.4737V53.6226H62.5223V46.4245C62.5223 45.7419 62.4458 45.2683 62.2927 45.0036C62.1466 44.732 61.8683 44.5962 61.4577 44.5962C61.1099 44.5962 60.776 44.7076 60.4559 44.9306C60.1428 45.1534 59.8297 45.4633 59.5168 45.8603V53.6226H56.2189Z" fill="url(#paint9_linear_1_19)"/>
<path d="M76.9314 42.162C77.7175 42.162 78.2985 42.4197 78.6742 42.9351C79.0568 43.4435 79.2481 44.2689 79.2481 45.411V53.6226H76.42V45.7872C76.42 45.3972 76.3817 45.1221 76.3052 44.9619C76.2356 44.8016 76.0895 44.7216 75.8669 44.7216C75.693 44.7216 75.512 44.7738 75.3242 44.8783C75.1433 44.9758 74.9416 45.1639 74.719 45.4424V53.6226H72.4021V45.7872C72.4021 45.3972 72.3638 45.1221 72.2873 44.9619C72.2177 44.8016 72.0716 44.7216 71.849 44.7216C71.6751 44.7216 71.4942 44.7738 71.3063 44.8783C71.1254 44.9758 70.9237 45.1639 70.7011 45.4424V53.6226H67.8311V42.5277H70.2523L70.4715 43.6037C70.8193 43.1301 71.1707 42.7714 71.5255 42.5277C71.8803 42.2839 72.3012 42.162 72.7883 42.162C73.2057 42.162 73.5605 42.2699 73.8527 42.4859C74.152 42.6948 74.3641 43.0256 74.4894 43.4783C74.8233 43.0883 75.1921 42.7714 75.5955 42.5277C75.9991 42.2839 76.4443 42.162 76.9314 42.162Z" fill="url(#paint10_linear_1_19)"/>
<path d="M91.1004 40.7517L91.8728 43.1754C91.4832 43.3287 91.0274 43.4401 90.5057 43.5097C89.9838 43.5794 89.3751 43.6142 88.6794 43.6142C89.3751 43.9137 89.9038 44.2863 90.2656 44.7321C90.6344 45.1708 90.8187 45.7489 90.8187 46.4664C90.8187 47.1837 90.6274 47.8245 90.2448 48.3886C89.862 48.9458 89.3195 49.3846 88.6168 49.705C87.9141 50.0254 87.0826 50.1856 86.1225 50.1856C85.6633 50.1856 85.2354 50.1438 84.8389 50.0602C84.7205 50.1229 84.6302 50.2133 84.5676 50.3318C84.5049 50.4502 84.4736 50.5721 84.4736 50.6975C84.4736 50.8716 84.5431 51.0283 84.6824 51.1675C84.8285 51.3069 85.1659 51.3765 85.6946 51.3765H87.5105C88.3732 51.3765 89.1176 51.5158 89.7438 51.7944C90.3769 52.0729 90.8674 52.4526 91.2153 52.9331C91.5631 53.4137 91.7371 53.964 91.7371 54.5839C91.7371 55.7191 91.2397 56.6141 90.2448 57.2688C89.2498 57.9234 87.7714 58.2509 85.8094 58.2509C84.3901 58.2509 83.2908 58.1046 82.5117 57.8121C81.7393 57.5265 81.2002 57.1156 80.8941 56.5792C80.5949 56.0499 80.4453 55.4196 80.4453 54.6882H83.3673C83.3673 55.0087 83.43 55.2699 83.5552 55.4718C83.6874 55.6808 83.9344 55.8341 84.2962 55.9315C84.6649 56.029 85.1972 56.0778 85.8929 56.0778C86.5956 56.0778 87.1313 56.022 87.5 55.9107C87.8688 55.7992 88.1192 55.646 88.2515 55.4509C88.3906 55.2629 88.4602 55.0505 88.4602 54.8136C88.4602 54.4863 88.3314 54.2217 88.0741 54.0197C87.8166 53.8178 87.4097 53.7167 86.853 53.7167H85.0893C83.8926 53.7167 83.0229 53.4973 82.4803 53.0585C81.9376 52.6128 81.6663 52.0938 81.6663 51.5019C81.6663 51.091 81.7741 50.701 81.9898 50.3318C82.2124 49.9627 82.5221 49.6527 82.9187 49.402C82.209 49.0258 81.701 48.5836 81.3949 48.0752C81.0888 47.5598 80.9358 46.9434 80.9358 46.226C80.9358 45.3902 81.148 44.6729 81.5724 44.0739C81.9968 43.4679 82.5811 43.0013 83.3256 42.674C84.077 42.3467 84.9329 42.1829 85.8929 42.1829C86.7208 42.1968 87.441 42.1412 88.0532 42.0158C88.6654 41.8834 89.2151 41.7059 89.7021 41.4829C90.189 41.2531 90.6552 41.0093 91.1004 40.7517ZM85.9764 44.3246C85.4546 44.3246 85.0406 44.4918 84.7345 44.8262C84.4283 45.1535 84.2753 45.6062 84.2753 46.1843C84.2753 46.7971 84.4319 47.2673 84.745 47.5946C85.058 47.9219 85.4686 48.0857 85.9764 48.0857C87.1034 48.0857 87.667 47.4379 87.667 46.1425C87.667 44.9306 87.1034 44.3246 85.9764 44.3246Z" fill="url(#paint11_linear_1_19)"/>
</g>
<path d="M653.02 28V15.72H648.88V14H659.26V15.72H655.14V28H653.02ZM664.007 28.24C663.034 28.24 662.167 28.0267 661.407 27.6C660.661 27.16 660.074 26.5533 659.647 25.78C659.221 25.0067 659.007 24.1067 659.007 23.08C659.007 22.04 659.214 21.1267 659.627 20.34C660.054 19.5533 660.641 18.94 661.387 18.5C662.147 18.06 663.027 17.84 664.027 17.84C665.001 17.84 665.847 18.06 666.567 18.5C667.287 18.9267 667.847 19.5 668.247 20.22C668.647 20.94 668.847 21.7333 668.847 22.6C668.847 22.7333 668.841 22.88 668.827 23.04C668.827 23.1867 668.821 23.3533 668.807 23.54H661.087C661.154 24.5 661.467 25.2333 662.027 25.74C662.601 26.2333 663.261 26.48 664.007 26.48C664.607 26.48 665.107 26.3467 665.507 26.08C665.921 25.8 666.227 25.4267 666.427 24.96H668.547C668.281 25.8933 667.747 26.6733 666.947 27.3C666.161 27.9267 665.181 28.24 664.007 28.24ZM664.007 19.58C663.301 19.58 662.674 19.7933 662.127 20.22C661.581 20.6333 661.247 21.26 661.127 22.1H666.727C666.687 21.3267 666.414 20.7133 665.907 20.26C665.401 19.8067 664.767 19.58 664.007 19.58ZM675.747 28.24C674.774 28.24 673.9 28.02 673.127 27.58C672.367 27.14 671.767 26.5333 671.327 25.76C670.9 24.9733 670.687 24.0667 670.687 23.04C670.687 22.0133 670.9 21.1133 671.327 20.34C671.767 19.5533 672.367 18.94 673.127 18.5C673.9 18.06 674.774 17.84 675.747 17.84C676.974 17.84 678 18.16 678.827 18.8C679.667 19.44 680.207 20.3067 680.447 21.4H678.227C678.094 20.8533 677.8 20.4267 677.347 20.12C676.894 19.8133 676.36 19.66 675.747 19.66C675.227 19.66 674.747 19.7933 674.307 20.06C673.867 20.3133 673.514 20.6933 673.247 21.2C672.98 21.6933 672.847 22.3067 672.847 23.04C672.847 23.7733 672.98 24.3933 673.247 24.9C673.514 25.3933 673.867 25.7733 674.307 26.04C674.747 26.3067 675.227 26.44 675.747 26.44C676.36 26.44 676.894 26.2867 677.347 25.98C677.8 25.6733 678.094 25.24 678.227 24.68H680.447C680.22 25.7467 679.687 26.6067 678.847 27.26C678.007 27.9133 676.974 28.24 675.747 28.24ZM682.746 28V13.6H684.866V19.68C685.2 19.1067 685.66 18.66 686.246 18.34C686.846 18.0067 687.506 17.84 688.226 17.84C689.413 17.84 690.346 18.2133 691.026 18.96C691.706 19.7067 692.046 20.82 692.046 22.3V28H689.946V22.52C689.946 20.6 689.18 19.64 687.646 19.64C686.846 19.64 686.18 19.92 685.646 20.48C685.126 21.04 684.866 21.84 684.866 22.88V28H682.746ZM704.282 28.24C703.256 28.24 702.356 28.06 701.582 27.7C700.809 27.34 700.202 26.8267 699.762 26.16C699.336 25.4933 699.116 24.7 699.102 23.78H701.342C701.356 24.5267 701.616 25.16 702.122 25.68C702.629 26.2 703.342 26.46 704.262 26.46C705.076 26.46 705.709 26.2667 706.162 25.88C706.629 25.48 706.862 24.9733 706.862 24.36C706.862 23.8667 706.749 23.4667 706.522 23.16C706.309 22.8533 706.009 22.6 705.622 22.4C705.249 22.2 704.816 22.02 704.322 21.86C703.829 21.7 703.309 21.5267 702.762 21.34C701.682 20.98 700.869 20.5133 700.322 19.94C699.789 19.3667 699.522 18.6133 699.522 17.68C699.509 16.8933 699.689 16.2067 700.062 15.62C700.449 15.0333 700.982 14.58 701.662 14.26C702.356 13.9267 703.162 13.76 704.082 13.76C704.989 13.76 705.782 13.9267 706.462 14.26C707.156 14.5933 707.696 15.06 708.082 15.66C708.469 16.2467 708.669 16.9333 708.682 17.72H706.442C706.442 17.36 706.349 17.02 706.162 16.7C705.976 16.3667 705.702 16.0933 705.342 15.88C704.982 15.6667 704.542 15.56 704.022 15.56C703.356 15.5467 702.802 15.7133 702.362 16.06C701.936 16.4067 701.722 16.8867 701.722 17.5C701.722 18.0467 701.882 18.4667 702.202 18.76C702.522 19.0533 702.962 19.3 703.522 19.5C704.082 19.6867 704.722 19.9067 705.442 20.16C706.136 20.3867 706.756 20.66 707.302 20.98C707.849 21.3 708.282 21.72 708.602 22.24C708.936 22.76 709.102 23.42 709.102 24.22C709.102 24.9267 708.922 25.5867 708.562 26.2C708.202 26.8 707.662 27.2933 706.942 27.68C706.222 28.0533 705.336 28.24 704.282 28.24ZM715.5 28C714.527 28 713.753 27.7667 713.18 27.3C712.607 26.82 712.32 25.9733 712.32 24.76V19.86H710.62V18.08H712.32L712.58 15.56H714.44V18.08H717.24V19.86H714.44V24.76C714.44 25.3067 714.553 25.6867 714.78 25.9C715.02 26.1 715.427 26.2 716 26.2H717.14V28H715.5ZM722.786 28.24C721.946 28.24 721.253 28.1 720.706 27.82C720.159 27.54 719.753 27.1733 719.486 26.72C719.219 26.2533 719.086 25.7467 719.086 25.2C719.086 24.24 719.459 23.48 720.206 22.92C720.953 22.36 722.019 22.08 723.406 22.08H726.006V21.9C726.006 21.1267 725.793 20.5467 725.366 20.16C724.953 19.7733 724.413 19.58 723.746 19.58C723.159 19.58 722.646 19.7267 722.206 20.02C721.779 20.3 721.519 20.72 721.426 21.28H719.306C719.373 20.56 719.613 19.9467 720.026 19.44C720.453 18.92 720.986 18.5267 721.626 18.26C722.279 17.98 722.993 17.84 723.766 17.84C725.153 17.84 726.226 18.2067 726.986 18.94C727.746 19.66 728.126 20.6467 728.126 21.9V28H726.286L726.106 26.3C725.826 26.8467 725.419 27.3067 724.886 27.68C724.353 28.0533 723.653 28.24 722.786 28.24ZM723.206 26.52C723.779 26.52 724.259 26.3867 724.646 26.12C725.046 25.84 725.353 25.4733 725.566 25.02C725.793 24.5667 725.933 24.0667 725.986 23.52H723.626C722.786 23.52 722.186 23.6667 721.826 23.96C721.479 24.2533 721.306 24.62 721.306 25.06C721.306 25.5133 721.473 25.8733 721.806 26.14C722.153 26.3933 722.619 26.52 723.206 26.52ZM735.298 28.24C734.324 28.24 733.451 28.02 732.678 27.58C731.918 27.14 731.318 26.5333 730.878 25.76C730.451 24.9733 730.238 24.0667 730.238 23.04C730.238 22.0133 730.451 21.1133 730.878 20.34C731.318 19.5533 731.918 18.94 732.678 18.5C733.451 18.06 734.324 17.84 735.298 17.84C736.524 17.84 737.551 18.16 738.378 18.8C739.218 19.44 739.758 20.3067 739.998 21.4H737.778C737.644 20.8533 737.351 20.4267 736.898 20.12C736.444 19.8133 735.911 19.66 735.298 19.66C734.778 19.66 734.298 19.7933 733.858 20.06C733.418 20.3133 733.064 20.6933 732.798 21.2C732.531 21.6933 732.398 22.3067 732.398 23.04C732.398 23.7733 732.531 24.3933 732.798 24.9C733.064 25.3933 733.418 25.7733 733.858 26.04C734.298 26.3067 734.778 26.44 735.298 26.44C735.911 26.44 736.444 26.2867 736.898 25.98C737.351 25.6733 737.644 25.24 737.778 24.68H739.998C739.771 25.7467 739.238 26.6067 738.398 27.26C737.558 27.9133 736.524 28.24 735.298 28.24ZM742.297 28V13.6H744.417V22.18L748.217 18.08H750.757L746.537 22.58L751.377 28H748.697L744.417 22.92V28H742.297Z" fill="#666666"/>
<path d="M942.066 28.24C940.68 28.24 939.48 27.94 938.466 27.34C937.466 26.7267 936.693 25.88 936.146 24.8C935.6 23.7067 935.326 22.4467 935.326 21.02C935.326 19.58 935.6 18.32 936.146 17.24C936.693 16.1467 937.466 15.2933 938.466 14.68C939.48 14.0667 940.68 13.76 942.066 13.76C943.706 13.76 945.046 14.16 946.086 14.96C947.126 15.76 947.786 16.88 948.066 18.32H945.706C945.52 17.5067 945.12 16.86 944.506 16.38C943.893 15.9 943.073 15.66 942.046 15.66C940.646 15.66 939.54 16.14 938.726 17.1C937.913 18.0467 937.506 19.3533 937.506 21.02C937.506 22.6733 937.913 23.9733 938.726 24.92C939.54 25.8667 940.646 26.34 942.046 26.34C943.073 26.34 943.893 26.1133 944.506 25.66C945.12 25.2067 945.52 24.5867 945.706 23.8H948.066C947.786 25.1867 947.126 26.2733 946.086 27.06C945.046 27.8467 943.706 28.24 942.066 28.24ZM954.957 28.24C954.01 28.24 953.157 28.0267 952.397 27.6C951.65 27.16 951.057 26.5533 950.617 25.78C950.177 24.9933 949.957 24.08 949.957 23.04C949.957 22 950.177 21.0933 950.617 20.32C951.07 19.5333 951.677 18.9267 952.437 18.5C953.197 18.06 954.043 17.84 954.977 17.84C955.923 17.84 956.77 18.06 957.517 18.5C958.277 18.9267 958.877 19.5333 959.317 20.32C959.77 21.0933 959.997 22 959.997 23.04C959.997 24.08 959.77 24.9933 959.317 25.78C958.877 26.5533 958.277 27.16 957.517 27.6C956.757 28.0267 955.903 28.24 954.957 28.24ZM954.957 26.42C955.463 26.42 955.93 26.2933 956.357 26.04C956.797 25.7867 957.15 25.4133 957.417 24.92C957.683 24.4133 957.817 23.7867 957.817 23.04C957.817 22.2933 957.683 21.6733 957.417 21.18C957.163 20.6733 956.817 20.2933 956.377 20.04C955.95 19.7867 955.483 19.66 954.977 19.66C954.47 19.66 953.997 19.7867 953.557 20.04C953.13 20.2933 952.783 20.6733 952.517 21.18C952.25 21.6733 952.117 22.2933 952.117 23.04C952.117 23.7867 952.25 24.4133 952.517 24.92C952.783 25.4133 953.13 25.7867 953.557 26.04C953.983 26.2933 954.45 26.42 954.957 26.42ZM962.289 28V18.08H964.169L964.329 19.82C964.636 19.2067 965.083 18.7267 965.669 18.38C966.269 18.02 966.956 17.84 967.729 17.84C968.929 17.84 969.869 18.2133 970.549 18.96C971.243 19.7067 971.589 20.82 971.589 22.3V28H969.489V22.52C969.489 20.6 968.703 19.64 967.129 19.64C966.343 19.64 965.689 19.92 965.169 20.48C964.663 21.04 964.409 21.84 964.409 22.88V28H962.289ZM978.246 28C977.273 28 976.499 27.7667 975.926 27.3C975.353 26.82 975.066 25.9733 975.066 24.76V19.86H973.366V18.08H975.066L975.326 15.56H977.186V18.08H979.986V19.86H977.186V24.76C977.186 25.3067 977.299 25.6867 977.526 25.9C977.766 26.1 978.173 26.2 978.746 26.2H979.886V28H978.246ZM985.532 28.24C984.692 28.24 983.999 28.1 983.452 27.82C982.905 27.54 982.499 27.1733 982.232 26.72C981.965 26.2533 981.832 25.7467 981.832 25.2C981.832 24.24 982.205 23.48 982.952 22.92C983.699 22.36 984.765 22.08 986.152 22.08H988.752V21.9C988.752 21.1267 988.539 20.5467 988.112 20.16C987.699 19.7733 987.159 19.58 986.492 19.58C985.905 19.58 985.392 19.7267 984.952 20.02C984.525 20.3 984.265 20.72 984.172 21.28H982.052C982.119 20.56 982.359 19.9467 982.772 19.44C983.199 18.92 983.732 18.5267 984.372 18.26C985.025 17.98 985.739 17.84 986.512 17.84C987.899 17.84 988.972 18.2067 989.732 18.94C990.492 19.66 990.872 20.6467 990.872 21.9V28H989.032L988.852 26.3C988.572 26.8467 988.165 27.3067 987.632 27.68C987.099 28.0533 986.399 28.24 985.532 28.24ZM985.952 26.52C986.525 26.52 987.005 26.3867 987.392 26.12C987.792 25.84 988.099 25.4733 988.312 25.02C988.539 24.5667 988.679 24.0667 988.732 23.52H986.372C985.532 23.52 984.932 23.6667 984.572 23.96C984.225 24.2533 984.052 24.62 984.052 25.06C984.052 25.5133 984.219 25.8733 984.552 26.14C984.899 26.3933 985.365 26.52 985.952 26.52ZM998.044 28.24C997.071 28.24 996.197 28.02 995.424 27.58C994.664 27.14 994.064 26.5333 993.624 25.76C993.197 24.9733 992.984 24.0667 992.984 23.04C992.984 22.0133 993.197 21.1133 993.624 20.34C994.064 19.5533 994.664 18.94 995.424 18.5C996.197 18.06 997.071 17.84 998.044 17.84C999.271 17.84 1000.3 18.16 1001.12 18.8C1001.96 19.44 1002.5 20.3067 1002.74 21.4H1000.52C1000.39 20.8533 1000.1 20.4267 999.644 20.12C999.191 19.8133 998.657 19.66 998.044 19.66C997.524 19.66 997.044 19.7933 996.604 20.06C996.164 20.3133 995.811 20.6933 995.544 21.2C995.277 21.6933 995.144 22.3067 995.144 23.04C995.144 23.7733 995.277 24.3933 995.544 24.9C995.811 25.3933 996.164 25.7733 996.604 26.04C997.044 26.3067 997.524 26.44 998.044 26.44C998.657 26.44 999.191 26.2867 999.644 25.98C1000.1 25.6733 1000.39 25.24 1000.52 24.68H1002.74C1002.52 25.7467 1001.98 26.6067 1001.14 27.26C1000.3 27.9133 999.271 28.24 998.044 28.24ZM1009.01 28C1008.03 28 1007.26 27.7667 1006.69 27.3C1006.11 26.82 1005.83 25.9733 1005.83 24.76V19.86H1004.13V18.08H1005.83L1006.09 15.56H1007.95V18.08H1010.75V19.86H1007.95V24.76C1007.95 25.3067 1008.06 25.6867 1008.29 25.9C1008.53 26.1 1008.93 26.2 1009.51 26.2H1010.65V28H1009.01Z" fill="#666666"/>
<path d="M807.543 28V14H812.443C813.536 14 814.443 14.1867 815.163 14.56C815.883 14.92 816.416 15.42 816.763 16.06C817.123 16.6867 817.303 17.4 817.303 18.2C817.303 18.96 817.13 19.66 816.783 20.3C816.45 20.9267 815.923 21.4267 815.203 21.8C814.483 22.1733 813.563 22.36 812.443 22.36H809.663V28H807.543ZM809.663 20.62H812.343C813.343 20.62 814.056 20.4067 814.483 19.98C814.923 19.54 815.143 18.9467 815.143 18.2C815.143 17.4267 814.923 16.8267 814.483 16.4C814.056 15.96 813.343 15.74 812.343 15.74H809.663V20.62ZM819.319 28V18.08H821.219L821.399 19.96C821.745 19.3067 822.225 18.7933 822.839 18.42C823.465 18.0333 824.219 17.84 825.099 17.84V20.06H824.519C823.932 20.06 823.405 20.16 822.939 20.36C822.485 20.5467 822.119 20.8733 821.839 21.34C821.572 21.7933 821.439 22.4267 821.439 23.24V28H819.319ZM831.283 28.24C830.336 28.24 829.483 28.0267 828.723 27.6C827.976 27.16 827.383 26.5533 826.943 25.78C826.503 24.9933 826.283 24.08 826.283 23.04C826.283 22 826.503 21.0933 826.943 20.32C827.396 19.5333 828.003 18.9267 828.763 18.5C829.523 18.06 830.369 17.84 831.303 17.84C832.249 17.84 833.096 18.06 833.843 18.5C834.603 18.9267 835.203 19.5333 835.643 20.32C836.096 21.0933 836.323 22 836.323 23.04C836.323 24.08 836.096 24.9933 835.643 25.78C835.203 26.5533 834.603 27.16 833.843 27.6C833.083 28.0267 832.229 28.24 831.283 28.24ZM831.283 26.42C831.789 26.42 832.256 26.2933 832.683 26.04C833.123 25.7867 833.476 25.4133 833.743 24.92C834.009 24.4133 834.143 23.7867 834.143 23.04C834.143 22.2933 834.009 21.6733 833.743 21.18C833.489 20.6733 833.143 20.2933 832.703 20.04C832.276 19.7867 831.809 19.66 831.303 19.66C830.796 19.66 830.323 19.7867 829.883 20.04C829.456 20.2933 829.109 20.6733 828.843 21.18C828.576 21.6733 828.443 22.2933 828.443 23.04C828.443 23.7867 828.576 24.4133 828.843 24.92C829.109 25.4133 829.456 25.7867 829.883 26.04C830.309 26.2933 830.776 26.42 831.283 26.42ZM839.875 16.2C839.475 16.2 839.142 16.08 838.875 15.84C838.622 15.5867 838.495 15.2733 838.495 14.9C838.495 14.5267 838.622 14.22 838.875 13.98C839.142 13.7267 839.475 13.6 839.875 13.6C840.275 13.6 840.602 13.7267 840.855 13.98C841.122 14.22 841.255 14.5267 841.255 14.9C841.255 15.2733 841.122 15.5867 840.855 15.84C840.602 16.08 840.275 16.2 839.875 16.2ZM836.715 32.4V30.6H837.495C837.962 30.6 838.295 30.5 838.495 30.3C838.695 30.1133 838.795 29.7933 838.795 29.34V18.08H840.915V29.36C840.915 30.44 840.642 31.2133 840.095 31.68C839.549 32.16 838.789 32.4 837.815 32.4H836.715ZM848.353 28.24C847.38 28.24 846.513 28.0267 845.753 27.6C845.006 27.16 844.42 26.5533 843.993 25.78C843.566 25.0067 843.353 24.1067 843.353 23.08C843.353 22.04 843.56 21.1267 843.973 20.34C844.4 19.5533 844.986 18.94 845.733 18.5C846.493 18.06 847.373 17.84 848.373 17.84C849.346 17.84 850.193 18.06 850.913 18.5C851.633 18.9267 852.193 19.5 852.593 20.22C852.993 20.94 853.193 21.7333 853.193 22.6C853.193 22.7333 853.186 22.88 853.173 23.04C853.173 23.1867 853.166 23.3533 853.153 23.54H845.433C845.5 24.5 845.813 25.2333 846.373 25.74C846.946 26.2333 847.606 26.48 848.353 26.48C848.953 26.48 849.453 26.3467 849.853 26.08C850.266 25.8 850.573 25.4267 850.773 24.96H852.893C852.626 25.8933 852.093 26.6733 851.293 27.3C850.506 27.9267 849.526 28.24 848.353 28.24ZM848.353 19.58C847.646 19.58 847.02 19.7933 846.473 20.22C845.926 20.6333 845.593 21.26 845.473 22.1H851.073C851.033 21.3267 850.76 20.7133 850.253 20.26C849.746 19.8067 849.113 19.58 848.353 19.58ZM860.093 28.24C859.119 28.24 858.246 28.02 857.473 27.58C856.713 27.14 856.113 26.5333 855.673 25.76C855.246 24.9733 855.033 24.0667 855.033 23.04C855.033 22.0133 855.246 21.1133 855.673 20.34C856.113 19.5533 856.713 18.94 857.473 18.5C858.246 18.06 859.119 17.84 860.093 17.84C861.319 17.84 862.346 18.16 863.173 18.8C864.013 19.44 864.553 20.3067 864.793 21.4H862.573C862.439 20.8533 862.146 20.4267 861.693 20.12C861.239 19.8133 860.706 19.66 860.093 19.66C859.573 19.66 859.093 19.7933 858.653 20.06C858.213 20.3133 857.859 20.6933 857.593 21.2C857.326 21.6933 857.193 22.3067 857.193 23.04C857.193 23.7733 857.326 24.3933 857.593 24.9C857.859 25.3933 858.213 25.7733 858.653 26.04C859.093 26.3067 859.573 26.44 860.093 26.44C860.706 26.44 861.239 26.2867 861.693 25.98C862.146 25.6733 862.439 25.24 862.573 24.68H864.793C864.566 25.7467 864.033 26.6067 863.193 27.26C862.353 27.9133 861.319 28.24 860.093 28.24ZM871.057 28C870.083 28 869.31 27.7667 868.737 27.3C868.163 26.82 867.877 25.9733 867.877 24.76V19.86H866.177V18.08H867.877L868.137 15.56H869.997V18.08H872.797V19.86H869.997V24.76C869.997 25.3067 870.11 25.6867 870.337 25.9C870.577 26.1 870.983 26.2 871.557 26.2H872.697V28H871.057ZM878.943 28.24C877.689 28.24 876.656 27.9333 875.843 27.32C875.029 26.7067 874.563 25.8933 874.443 24.88H876.583C876.689 25.3333 876.943 25.7267 877.343 26.06C877.743 26.38 878.269 26.54 878.923 26.54C879.563 26.54 880.029 26.4067 880.323 26.14C880.616 25.8733 880.763 25.5667 880.763 25.22C880.763 24.7133 880.556 24.3733 880.143 24.2C879.743 24.0133 879.183 23.8467 878.463 23.7C877.903 23.58 877.343 23.42 876.783 23.22C876.236 23.02 875.776 22.74 875.403 22.38C875.043 22.0067 874.863 21.5067 874.863 20.88C874.863 20.0133 875.196 19.2933 875.863 18.72C876.529 18.1333 877.463 17.84 878.663 17.84C879.769 17.84 880.663 18.1067 881.343 18.64C882.036 19.1733 882.443 19.9267 882.563 20.9H880.523C880.456 20.4733 880.256 20.14 879.923 19.9C879.603 19.66 879.169 19.54 878.623 19.54C878.089 19.54 877.676 19.6533 877.383 19.88C877.089 20.0933 876.943 20.3733 876.943 20.72C876.943 21.0667 877.143 21.34 877.543 21.54C877.956 21.74 878.496 21.92 879.163 22.08C879.829 22.2267 880.443 22.4 881.003 22.6C881.576 22.7867 882.036 23.0667 882.383 23.44C882.729 23.8133 882.903 24.36 882.903 25.08C882.916 25.9867 882.563 26.74 881.843 27.34C881.136 27.94 880.169 28.24 878.943 28.24Z" fill="#666666"/>
<path d="M404.5 28V14H406.62V20H413.4V14H415.52V28H413.4V21.74H406.62V28H404.5ZM422.927 28.24C421.981 28.24 421.127 28.0267 420.367 27.6C419.621 27.16 419.027 26.5533 418.587 25.78C418.147 24.9933 417.927 24.08 417.927 23.04C417.927 22 418.147 21.0933 418.587 20.32C419.041 19.5333 419.647 18.9267 420.407 18.5C421.167 18.06 422.014 17.84 422.947 17.84C423.894 17.84 424.741 18.06 425.487 18.5C426.247 18.9267 426.847 19.5333 427.287 20.32C427.741 21.0933 427.967 22 427.967 23.04C427.967 24.08 427.741 24.9933 427.287 25.78C426.847 26.5533 426.247 27.16 425.487 27.6C424.727 28.0267 423.874 28.24 422.927 28.24ZM422.927 26.42C423.434 26.42 423.901 26.2933 424.327 26.04C424.767 25.7867 425.121 25.4133 425.387 24.92C425.654 24.4133 425.787 23.7867 425.787 23.04C425.787 22.2933 425.654 21.6733 425.387 21.18C425.134 20.6733 424.787 20.2933 424.347 20.04C423.921 19.7867 423.454 19.66 422.947 19.66C422.441 19.66 421.967 19.7867 421.527 20.04C421.101 20.2933 420.754 20.6733 420.487 21.18C420.221 21.6733 420.087 22.2933 420.087 23.04C420.087 23.7867 420.221 24.4133 420.487 24.92C420.754 25.4133 421.101 25.7867 421.527 26.04C421.954 26.2933 422.421 26.42 422.927 26.42ZM430.26 28V18.08H432.14L432.32 19.48C432.64 18.9733 433.06 18.5733 433.58 18.28C434.113 17.9867 434.727 17.84 435.42 17.84C436.993 17.84 438.087 18.46 438.7 19.7C439.06 19.1267 439.54 18.6733 440.14 18.34C440.753 18.0067 441.413 17.84 442.12 17.84C443.36 17.84 444.333 18.2133 445.04 18.96C445.747 19.7067 446.1 20.82 446.1 22.3V28H443.98V22.52C443.98 20.6 443.247 19.64 441.78 19.64C441.033 19.64 440.42 19.92 439.94 20.48C439.473 21.04 439.24 21.84 439.24 22.88V28H437.12V22.52C437.12 20.6 436.38 19.64 434.9 19.64C434.167 19.64 433.56 19.92 433.08 20.48C432.613 21.04 432.38 21.84 432.38 22.88V28H430.26ZM453.22 28.24C452.247 28.24 451.38 28.0267 450.62 27.6C449.874 27.16 449.287 26.5533 448.86 25.78C448.434 25.0067 448.22 24.1067 448.22 23.08C448.22 22.04 448.427 21.1267 448.84 20.34C449.267 19.5533 449.854 18.94 450.6 18.5C451.36 18.06 452.24 17.84 453.24 17.84C454.214 17.84 455.06 18.06 455.78 18.5C456.5 18.9267 457.06 19.5 457.46 20.22C457.86 20.94 458.06 21.7333 458.06 22.6C458.06 22.7333 458.054 22.88 458.04 23.04C458.04 23.1867 458.034 23.3533 458.02 23.54H450.3C450.367 24.5 450.68 25.2333 451.24 25.74C451.814 26.2333 452.474 26.48 453.22 26.48C453.82 26.48 454.32 26.3467 454.72 26.08C455.134 25.8 455.44 25.4267 455.64 24.96H457.76C457.494 25.8933 456.96 26.6733 456.16 27.3C455.374 27.9267 454.394 28.24 453.22 28.24ZM453.22 19.58C452.514 19.58 451.887 19.7933 451.34 20.22C450.794 20.6333 450.46 21.26 450.34 22.1H455.94C455.9 21.3267 455.627 20.7133 455.12 20.26C454.614 19.8067 453.98 19.58 453.22 19.58Z" fill="#666666"/>
<path d="M526.87 28L532.03 14H534.35L539.47 28H537.23L536.03 24.58H530.31L529.11 28H526.87ZM530.91 22.9H535.43L533.17 16.52L530.91 22.9ZM546.922 28.24C546.149 28.24 545.462 28.0867 544.862 27.78C544.275 27.4733 543.809 27.04 543.462 26.48L543.242 28H541.342V13.6H543.462V19.62C543.782 19.1533 544.222 18.74 544.782 18.38C545.342 18.02 546.062 17.84 546.942 17.84C547.902 17.84 548.749 18.0667 549.482 18.52C550.215 18.9733 550.789 19.5933 551.202 20.38C551.629 21.1667 551.842 22.06 551.842 23.06C551.842 24.06 551.629 24.9533 551.202 25.74C550.789 26.5133 550.215 27.1267 549.482 27.58C548.749 28.02 547.895 28.24 546.922 28.24ZM546.562 26.4C547.469 26.4 548.215 26.0933 548.802 25.48C549.389 24.8533 549.682 24.04 549.682 23.04C549.682 22.3867 549.549 21.8067 549.282 21.3C549.015 20.7933 548.649 20.4 548.182 20.12C547.715 19.8267 547.175 19.68 546.562 19.68C545.655 19.68 544.909 19.9933 544.322 20.62C543.749 21.2467 543.462 22.0533 543.462 23.04C543.462 24.04 543.749 24.8533 544.322 25.48C544.909 26.0933 545.655 26.4 546.562 26.4ZM558.775 28.24C557.828 28.24 556.975 28.0267 556.215 27.6C555.468 27.16 554.875 26.5533 554.435 25.78C553.995 24.9933 553.775 24.08 553.775 23.04C553.775 22 553.995 21.0933 554.435 20.32C554.888 19.5333 555.495 18.9267 556.255 18.5C557.015 18.06 557.862 17.84 558.795 17.84C559.742 17.84 560.588 18.06 561.335 18.5C562.095 18.9267 562.695 19.5333 563.135 20.32C563.588 21.0933 563.815 22 563.815 23.04C563.815 24.08 563.588 24.9933 563.135 25.78C562.695 26.5533 562.095 27.16 561.335 27.6C560.575 28.0267 559.722 28.24 558.775 28.24ZM558.775 26.42C559.282 26.42 559.748 26.2933 560.175 26.04C560.615 25.7867 560.968 25.4133 561.235 24.92C561.502 24.4133 561.635 23.7867 561.635 23.04C561.635 22.2933 561.502 21.6733 561.235 21.18C560.982 20.6733 560.635 20.2933 560.195 20.04C559.768 19.7867 559.302 19.66 558.795 19.66C558.288 19.66 557.815 19.7867 557.375 20.04C556.948 20.2933 556.602 20.6733 556.335 21.18C556.068 21.6733 555.935 22.2933 555.935 23.04C555.935 23.7867 556.068 24.4133 556.335 24.92C556.602 25.4133 556.948 25.7867 557.375 26.04C557.802 26.2933 558.268 26.42 558.775 26.42ZM569.768 28.24C568.568 28.24 567.621 27.8667 566.928 27.12C566.248 26.3733 565.908 25.26 565.908 23.78V18.08H568.028V23.56C568.028 25.48 568.814 26.44 570.388 26.44C571.174 26.44 571.821 26.16 572.328 25.6C572.834 25.04 573.088 24.24 573.088 23.2V18.08H575.208V28H573.328L573.168 26.26C572.861 26.8733 572.408 27.36 571.808 27.72C571.221 28.0667 570.541 28.24 569.768 28.24ZM582.064 28C581.091 28 580.318 27.7667 579.744 27.3C579.171 26.82 578.884 25.9733 578.884 24.76V19.86H577.184V18.08H578.884L579.144 15.56H581.004V18.08H583.804V19.86H581.004V24.76C581.004 25.3067 581.118 25.6867 581.344 25.9C581.584 26.1 581.991 26.2 582.564 26.2H583.704V28H582.064Z" fill="#666666"/>
<g clip-path="url(#clip1_1_19)">
<path d="M1178 6.59998C1170.05 6.59998 1163.6 13.047 1163.6 21C1163.6 28.953 1170.05 35.4 1178 35.4C1185.95 35.4 1192.4 28.953 1192.4 21C1192.4 13.047 1185.95 6.59998 1178 6.59998ZM1174.47 26.9685H1171.56V17.5845H1174.47V26.9685ZM1173 16.4325C1172.08 16.4325 1171.48 15.78 1171.48 14.973C1171.48 14.1495 1172.1 13.5165 1173.04 13.5165C1173.98 13.5165 1174.55 14.1495 1174.57 14.973C1174.57 15.78 1173.98 16.4325 1173 16.4325ZM1185.12 26.9685H1182.21V21.768C1182.21 20.5575 1181.79 19.7355 1180.73 19.7355C1179.93 19.7355 1179.45 20.292 1179.24 20.8275C1179.16 21.018 1179.14 21.288 1179.14 21.5565V26.967H1176.22V20.577C1176.22 19.4055 1176.18 18.426 1176.14 17.583H1178.68L1178.81 18.8865H1178.87C1179.25 18.2745 1180.19 17.3715 1181.77 17.3715C1183.69 17.3715 1185.12 18.657 1185.12 21.42V26.9685V26.9685Z" fill="#666666"/>
</g>
<path d="M1129.87 5.875C1121.59 5.875 1114.88 12.5915 1114.88 20.875C1114.88 29.1585 1121.59 35.875 1129.87 35.875C1138.16 35.875 1144.87 29.1585 1144.87 20.875C1144.87 12.5915 1138.16 5.875 1129.87 5.875ZM1137.08 17.1819C1137.09 17.3393 1137.09 17.5033 1137.09 17.6641C1137.09 22.5792 1133.35 28.2411 1126.51 28.2411C1124.4 28.2411 1122.45 27.6283 1120.8 26.5737C1121.1 26.6071 1121.39 26.6205 1121.7 26.6205C1123.44 26.6205 1125.04 26.0312 1126.31 25.0335C1124.68 25 1123.31 23.9286 1122.84 22.4554C1123.41 22.5391 1123.93 22.5391 1124.51 22.3884C1123.67 22.2175 1122.92 21.7605 1122.37 21.0953C1121.83 20.43 1121.54 19.5973 1121.54 18.7388V18.692C1122.03 18.9699 1122.61 19.1406 1123.22 19.1641C1122.71 18.8245 1122.29 18.3645 1122 17.8249C1121.71 17.2852 1121.56 16.6825 1121.56 16.0703C1121.56 15.3772 1121.74 14.7444 1122.06 14.1953C1123 15.3449 1124.16 16.2851 1125.48 16.9548C1126.8 17.6245 1128.25 18.0088 1129.73 18.0826C1129.21 15.5547 1131.09 13.5089 1133.36 13.5089C1134.44 13.5089 1135.4 13.9576 1136.08 14.6808C1136.92 14.5234 1137.72 14.2087 1138.44 13.7868C1138.16 14.6473 1137.58 15.3739 1136.81 15.8326C1137.56 15.7522 1138.28 15.5446 1138.95 15.2533C1138.44 15.9967 1137.81 16.6563 1137.08 17.1819V17.1819Z" fill="#666666"/>
<path fill-rule="evenodd" clip-rule="evenodd" d="M1078 6C1069.71 6 1063 12.7125 1063 21C1063 27.6375 1067.29 33.2438 1073.26 35.2313C1074.01 35.3625 1074.29 34.9125 1074.29 34.5188C1074.29 34.1625 1074.27 32.9812 1074.27 31.725C1070.5 32.4187 1069.53 30.8063 1069.23 29.9625C1069.06 29.5313 1068.32 28.2 1067.69 27.8438C1067.16 27.5625 1066.41 26.8688 1067.67 26.85C1068.85 26.8313 1069.69 27.9375 1069.97 28.3875C1071.32 30.6562 1073.48 30.0187 1074.34 29.625C1074.47 28.65 1074.87 27.9938 1075.3 27.6188C1071.96 27.2438 1068.48 25.95 1068.48 20.2125C1068.48 18.5812 1069.06 17.2313 1070.01 16.1813C1069.86 15.8063 1069.34 14.2688 1070.16 12.2063C1070.16 12.2063 1071.42 11.8125 1074.29 13.7438C1075.49 13.4063 1076.76 13.2375 1078.04 13.2375C1079.31 13.2375 1080.59 13.4063 1081.79 13.7438C1084.66 11.7938 1085.91 12.2063 1085.91 12.2063C1086.74 14.2688 1086.21 15.8063 1086.06 16.1813C1087.02 17.2313 1087.6 18.5625 1087.6 20.2125C1087.6 25.9687 1084.09 27.2438 1080.76 27.6188C1081.3 28.0875 1081.77 28.9875 1081.77 30.3937C1081.77 32.4 1081.75 34.0125 1081.75 34.5188C1081.75 34.9125 1082.03 35.3813 1082.78 35.2313C1085.76 34.2259 1088.35 32.3121 1090.18 29.7592C1092.01 27.2063 1093 24.1429 1093 21C1093 12.7125 1086.29 6 1078 6Z" fill="#666666"/>
<defs>
<linearGradient id="paint0_linear_1_19" x1="-2.05005" y1="36.7549" x2="99.9719" y2="0.679714" gradientUnits="userSpaceOnUse">
<stop stop-color="#00C0FD"/>
<stop offset="1" stop-color="#E70FAA"/>
</linearGradient>
<linearGradient id="paint1_linear_1_19" x1="-2.05004" y1="36.755" x2="99.972" y2="0.679755" gradientUnits="userSpaceOnUse">
<stop stop-color="#00C0FD"/>
<stop offset="1" stop-color="#E70FAA"/>
</linearGradient>
<linearGradient id="paint2_linear_1_19" x1="-2.05007" y1="36.755" x2="99.9719" y2="0.679757" gradientUnits="userSpaceOnUse">
<stop stop-color="#00C0FD"/>
<stop offset="1" stop-color="#E70FAA"/>
</linearGradient>
<linearGradient id="paint3_linear_1_19" x1="-2.05005" y1="36.7549" x2="99.9719" y2="0.679708" gradientUnits="userSpaceOnUse">
<stop stop-color="#00C0FD"/>
<stop offset="1" stop-color="#E70FAA"/>
</linearGradient>
<linearGradient id="paint4_linear_1_19" x1="-2.05002" y1="36.7549" x2="99.972" y2="0.679722" gradientUnits="userSpaceOnUse">
<stop stop-color="#00C0FD"/>
<stop offset="1" stop-color="#E70FAA"/>
</linearGradient>
<linearGradient id="paint5_linear_1_19" x1="-0.24442" y1="59.3454" x2="93.6381" y2="39.5069" gradientUnits="userSpaceOnUse">
<stop stop-color="#13B0F5"/>
<stop offset="1" stop-color="#CA24B4"/>
</linearGradient>
<linearGradient id="paint6_linear_1_19" x1="-0.244449" y1="59.3454" x2="93.638" y2="39.5069" gradientUnits="userSpaceOnUse">
<stop stop-color="#13B0F5"/>
<stop offset="1" stop-color="#CA24B4"/>
</linearGradient>
<linearGradient id="paint7_linear_1_19" x1="-0.244431" y1="59.3454" x2="93.6381" y2="39.5069" gradientUnits="userSpaceOnUse">
<stop stop-color="#13B0F5"/>
<stop offset="1" stop-color="#CA24B4"/>
</linearGradient>
<linearGradient id="paint8_linear_1_19" x1="-0.2444" y1="59.3454" x2="93.6381" y2="39.5069" gradientUnits="userSpaceOnUse">
<stop stop-color="#13B0F5"/>
<stop offset="1" stop-color="#CA24B4"/>
</linearGradient>
<linearGradient id="paint9_linear_1_19" x1="-0.244434" y1="59.3454" x2="93.6381" y2="39.5068" gradientUnits="userSpaceOnUse">
<stop stop-color="#13B0F5"/>
<stop offset="1" stop-color="#CA24B4"/>
</linearGradient>
<linearGradient id="paint10_linear_1_19" x1="-0.244412" y1="59.3454" x2="93.638" y2="39.5069" gradientUnits="userSpaceOnUse">
<stop stop-color="#13B0F5"/>
<stop offset="1" stop-color="#CA24B4"/>
</linearGradient>
<linearGradient id="paint11_linear_1_19" x1="-0.244413" y1="59.3454" x2="93.6381" y2="39.5069" gradientUnits="userSpaceOnUse">
<stop stop-color="#13B0F5"/>
<stop offset="1" stop-color="#CA24B4"/>
</linearGradient>
<clipPath id="clip0_1_19">
<rect width="97" height="59" fill="white"/>
</clipPath>
<clipPath id="clip1_1_19">
<rect width="30" height="30" fill="white" transform="translate(1163 6)"/>
</clipPath>
</defs>
</svg>
